<svg width="256" height="256" viewBox="0 0 256 256" fill="none" xmlns="http://www.w3.org/2000/svg">
<g clip-path="url(#clip0_1_83)">
<rect width="256" height="256" rx="60" fill="#242938"/>
<g clip-path="url(#clip1_1_83)">
<path d="M220.089 84.7578C219.615 84.2559 219.112 83.754 218.608 83.2816C218.105 82.8092 217.631 82.2777 217.127 81.8054C216.624 81.333 216.15 80.8015 215.646 80.3291C215.143 79.8567 214.669 79.3253 214.165 78.8529C213.662 78.3805 213.188 77.8491 212.684 77.3767C212.181 76.9043 211.707 76.3728 211.203 75.9004C210.7 75.428 210.226 74.8966 209.722 74.4242C224.414 88.8166 232.831 108.396 233.152 128.927C233.152 177.849 183.331 217.648 122.076 217.648C87.7757 217.648 57.0891 205.159 36.6808 185.584L38.1618 187.061L39.6428 188.537L41.1238 190.013L42.6048 191.489L44.0858 192.966L45.5668 194.442L47.0478 195.918C67.4266 216.319 98.7944 229.458 133.924 229.458C195.179 229.458 245 189.659 245 140.884C245 120.04 235.995 100.288 220.089 84.7578Z" fill="black"/>
<path d="M225.747 128.927C225.747 173.834 179.332 210.237 122.076 210.237C64.82 210.237 18.4051 173.834 18.4051 128.927C18.4051 101.085 36.1772 76.4909 63.4871 61.9058C90.797 47.3206 107.799 32.3812 122.076 32.3812C136.353 32.3812 148.556 44.5748 180.665 61.9058C207.975 76.4909 225.747 101.085 225.747 128.927Z" fill="#FBF0DF"/>
<path d="M225.747 128.927C225.732 123.158 224.935 117.417 223.377 111.861C215.291 210.178 94.9734 214.902 47.6699 185.496C68.9343 201.924 95.1751 210.65 122.076 210.237C179.243 210.237 225.747 173.775 225.747 128.927Z" fill="#F6DECE"/>
<path d="M82.1775 56.5028C95.4177 48.5902 113.012 33.7393 130.31 33.7098C127.649 32.8524 124.873 32.4044 122.076 32.3812C114.908 32.3812 107.266 36.0717 97.6392 41.6224C94.2922 43.571 90.8266 45.7263 87.1537 47.9702C80.2521 52.2217 72.3435 57.0342 63.4575 61.8467C35.259 77.0519 18.4051 102.118 18.4051 128.927C18.4051 130.108 18.4051 131.289 18.4051 132.44C36.3549 69.2279 68.9668 64.4154 82.1775 56.5028Z" fill="#FFFEFC"/>
<path d="M113.545 39.8509C113.629 53.958 107.54 67.401 96.8691 76.6681C96.0397 77.4062 96.6914 78.8234 97.7577 78.41C107.74 74.5423 121.217 62.9687 115.53 39.6147C115.293 38.2861 113.545 38.6404 113.545 39.8509ZM120.269 39.8509C127.603 51.7791 129.345 66.3053 125.038 79.6205C124.683 80.6539 125.956 81.5396 126.667 80.6834C133.154 72.4165 138.811 56.0008 121.869 38.2861C121.01 37.5184 119.677 38.6994 120.269 39.7328V39.8509ZM128.444 39.349C139.928 47.4525 147.328 60.1158 148.734 74.0699C148.672 74.5861 149.027 75.0602 149.542 75.1469C150.056 75.2337 150.548 74.9026 150.659 74.3947C153.385 64.0906 151.844 46.5234 129.422 37.4003C128.237 36.9279 127.467 38.5223 128.444 39.2309V39.349ZM73.7653 70.0546C87.4193 65.9886 98.6947 56.3275 104.778 43.4824C105.311 42.4195 106.999 42.8329 106.733 44.0139C101.608 67.6335 84.4582 72.5642 73.7949 71.9146C72.6694 71.9441 72.699 70.3793 73.7653 70.0546Z" fill="#CCBEA7"/>
<path d="M122.076 217.648C60.8213 217.648 11 177.849 11 128.927C11 99.402 29.3053 71.8556 59.9623 55.3513C68.8484 50.6274 76.4608 45.8739 83.2438 41.7109C86.9759 39.408 90.5008 37.2527 93.9071 35.245C104.304 29.1039 113.19 25 122.076 25C130.962 25 138.723 28.543 148.438 34.2707C151.4 35.9536 154.362 37.7842 157.531 39.7918C164.907 44.3386 173.23 49.4759 184.19 55.3513C214.847 71.8556 233.152 99.3725 233.152 128.927C233.152 177.849 183.331 217.648 122.076 217.648ZM122.076 32.3812C114.908 32.3812 107.266 36.0717 97.6392 41.6224C94.2922 43.571 90.8266 45.7263 87.1537 47.9702C80.2521 52.2217 72.3435 57.0342 63.4575 61.8467C35.259 77.0519 18.4051 102.118 18.4051 128.927C18.4051 173.775 64.9089 210.267 122.076 210.267C179.243 210.267 225.747 173.775 225.747 128.927C225.747 102.118 208.893 77.0519 180.665 61.9058C169.468 56.0008 160.73 50.4502 153.651 46.0806C150.423 44.1024 147.461 42.2719 144.765 40.648C135.79 35.3336 129.244 32.3812 122.076 32.3812Z" fill="black"/>
<path d="M142.958 150.48C141.628 155.912 138.599 160.782 134.309 164.386C131.089 167.497 126.92 169.451 122.461 169.936C117.868 169.528 113.553 167.57 110.228 164.386C105.982 160.765 102.996 155.897 101.697 150.48C101.61 149.828 101.83 149.173 102.294 148.705C102.757 148.237 103.412 148.009 104.067 148.088H140.618C141.268 148.019 141.914 148.251 142.371 148.718C142.827 149.184 143.044 149.834 142.958 150.48Z" fill="#B71422"/>
<path d="M110.228 164.622C113.546 167.808 117.846 169.784 122.431 170.232C127.006 169.778 131.295 167.802 134.605 164.622C135.664 163.638 136.654 162.582 137.567 161.463C133.879 157.292 128.628 154.825 123.053 154.643C117.063 154.784 111.525 157.853 108.243 162.85C108.925 163.47 109.517 164.061 110.228 164.622Z" fill="#FF6164"/>
<path d="M110.702 162.289C113.677 158.456 118.251 156.193 123.113 156.148C127.548 156.279 131.775 158.059 134.961 161.138C135.642 160.4 136.294 159.632 136.916 158.865C133.147 155.287 128.168 153.253 122.965 153.166C117.334 153.215 112.021 155.771 108.48 160.134C109.181 160.893 109.922 161.612 110.702 162.289Z" fill="black"/>
<path d="M122.343 171.708C117.407 171.277 112.762 169.196 109.162 165.803C104.576 161.937 101.349 156.714 99.9496 150.893C99.7464 149.843 100.029 148.758 100.72 147.941C101.542 146.95 102.778 146.395 104.067 146.435H140.618C141.905 146.408 143.135 146.961 143.965 147.941C144.649 148.762 144.922 149.848 144.706 150.893C143.306 156.714 140.079 161.937 135.494 165.803C131.901 169.19 127.268 171.27 122.343 171.708ZM104.067 149.86C103.593 149.86 103.474 150.066 103.445 150.125C104.697 155.173 107.529 159.692 111.531 163.028C114.458 165.901 118.262 167.72 122.343 168.194C126.412 167.725 130.213 165.93 133.154 163.087C137.143 159.746 139.965 155.228 141.211 150.184C141.079 149.992 140.85 149.889 140.618 149.919L104.067 149.86Z" fill="black"/>
<path d="M167.158 152.31C176.728 152.31 184.486 147.763 184.486 142.154C184.486 136.544 176.728 131.997 167.158 131.997C157.588 131.997 149.83 136.544 149.83 142.154C149.83 147.763 157.588 152.31 167.158 152.31Z" fill="#FEBBD0"/>
<path d="M77.4975 152.31C87.0674 152.31 94.8253 147.763 94.8253 142.154C94.8253 136.544 87.0674 131.997 77.4975 131.997C67.9276 131.997 60.1696 136.544 60.1696 142.154C60.1696 147.763 67.9276 152.31 77.4975 152.31Z" fill="#FEBBD0"/>
<path d="M85.643 138.079C92.2469 138.091 98.2071 134.135 100.743 128.057C103.278 121.979 101.889 114.977 97.2237 110.318C92.5583 105.66 85.5361 104.262 79.4338 106.779C73.3315 109.295 69.3519 115.229 69.3519 121.811C69.3519 130.784 76.6409 138.063 85.643 138.079ZM159.012 138.079C165.624 138.127 171.612 134.194 174.175 128.119C176.739 122.044 175.372 115.028 170.713 110.35C166.055 105.673 159.026 104.26 152.913 106.771C146.8 109.281 142.81 115.221 142.81 121.811C142.794 130.757 150.038 138.03 159.012 138.079Z" fill="black"/>
<path d="M80.6076 122.845C83.0902 122.857 85.335 121.375 86.2933 119.092C87.2517 116.81 86.7345 114.176 84.9832 112.422C83.232 110.668 80.5925 110.14 78.2977 111.084C76.0029 112.028 74.5058 114.258 74.5058 116.733C74.5058 120.097 77.2329 122.828 80.6076 122.845ZM153.977 122.845C156.46 122.857 158.704 121.375 159.663 119.092C160.621 116.81 160.104 114.176 158.353 112.422C156.601 110.668 153.962 110.14 151.667 111.084C149.372 112.028 147.875 114.258 147.875 116.733C147.875 120.074 150.566 122.796 153.918 122.845H153.977Z" fill="white"/>
</g>
</g>
<defs>
<clipPath id="clip0_1_83">
<rect width="256" height="256" fill="white"/>
</clipPath>
<clipPath id="clip1_1_83">
<rect width="234" height="205" fill="white" transform="translate(11 25)"/>
</clipPath>
</defs>
</svg>
