<svg width="256" height="256" viewBox="0 0 256 256" fill="none" xmlns="http://www.w3.org/2000/svg">
<g clip-path="url(#clip0_1_23)">
<rect width="256" height="256" rx="60" fill="#F4F2ED"/>
<path d="M55.6029 102.841L32.7968 79.9292C20.2154 92.5422 13.1496 109.633 13.1496 127.451C13.1496 145.27 20.2154 162.361 32.7968 174.974L55.6999 152.062C49.1741 145.542 45.4992 136.698 45.481 127.472C45.4628 118.245 49.1028 109.387 55.6029 102.841Z" fill="#E8710A"/>
<path d="M32.7968 79.9292L55.6029 102.841C58.8386 99.6001 62.6811 97.0292 66.9107 95.2751C71.1404 93.5211 75.6742 92.6182 80.2528 92.6182C84.8315 92.6182 89.3653 93.5211 93.5949 95.2751C97.8245 97.0292 101.667 99.6001 104.903 102.841L121.498 74.3954L120.527 73.6187C107.583 63.958 91.5961 59.2794 75.4879 60.438C59.3798 61.5967 44.2263 68.5152 32.7968 79.9292Z" fill="#F9AB00"/>
<path d="M121.595 180.508L104.903 152.159C101.667 155.4 97.8246 157.971 93.5949 159.725C89.3653 161.479 84.8315 162.382 80.2528 162.382C75.6742 162.382 71.1404 161.479 66.9108 159.725C62.6811 157.971 58.8386 155.4 55.6029 152.159L32.7968 175.071C44.2035 186.383 59.2805 193.238 75.3007 194.395C91.3208 195.553 107.226 190.936 120.139 181.381L121.207 180.508" fill="#F9AB00"/>
<path d="M128 79.9292C115.419 92.5422 108.353 109.633 108.353 127.451C108.353 145.27 115.419 162.361 128 174.974L150.903 152.062C144.366 145.522 140.693 136.652 140.693 127.403C140.693 118.154 144.366 109.284 150.903 102.744C157.441 96.2037 166.308 92.5296 175.553 92.5296C184.799 92.5296 193.665 96.2037 200.203 102.744L223.203 79.9292C216.956 73.6679 209.537 68.7005 201.369 65.3113C193.2 61.9221 184.444 60.1775 175.602 60.1775C166.759 60.1775 158.003 61.9221 149.835 65.3113C141.667 68.7005 134.247 73.6679 128 79.9292Z" fill="#F9AB00"/>
<path d="M223.203 79.9292L200.397 102.841C206.935 109.381 210.607 118.251 210.607 127.5C210.607 136.749 206.935 145.619 200.397 152.159C193.86 158.699 184.993 162.373 175.747 162.373C166.502 162.373 157.635 158.699 151.097 152.159L128 175.071C140.612 187.7 157.722 194.801 175.567 194.81C184.403 194.814 193.153 193.078 201.319 189.699C209.484 186.321 216.904 181.366 223.155 175.119C229.406 168.872 234.366 161.455 237.751 153.29C241.137 145.125 242.882 136.374 242.886 127.534C242.891 118.695 241.155 109.942 237.777 101.773C234.4 93.6053 229.448 86.1826 223.203 79.9292Z" fill="#E8710A"/>
</g>
<defs>
<clipPath id="clip0_1_23">
<rect width="256" height="256" fill="white"/>
</clipPath>
</defs>
</svg>
