<svg width="256" height="256" viewBox="0 0 256 256" fill="none" xmlns="http://www.w3.org/2000/svg">
<g clip-path="url(#clip0_6_60)">
<rect width="256" height="256" rx="60" fill="#242938"/>
<path d="M210.903 193.543C210.964 192.099 211.204 188.25 211.505 184.942C212.949 169.063 208.858 152.822 200.197 140.011C197.25 135.62 197.25 135.62 187.265 132.312C177.28 129.004 177.28 129.004 177.22 126.778C177.22 124.613 177.16 124.553 174.093 123.891C164.77 121.846 155.687 122.748 144.078 126.898C140.349 128.222 136.44 129.304 135.417 129.304C133.492 129.304 133.492 129.304 133.071 122.748C132.891 119.139 132.169 114.087 131.507 111.561C129.342 103.14 128.861 103.621 139.507 103.26C149.552 102.959 154.123 101.937 162.003 98.3278C167.176 95.9219 172.108 92.6739 171.386 92.0724C171.145 91.8318 169.401 90.9897 167.597 90.2679C161.822 87.9823 155.086 83.5915 151.958 80.2231C149.432 77.4563 148.71 76.0128 147.387 71.6821C142.996 57.066 136.68 50.1489 123.387 45.3972C121.763 44.7957 119.357 43.3521 118.094 42.1491C114.666 38.9613 111.057 34.0291 111.057 32.6457C111.057 31.5029 111.538 31.3826 116.651 31.0217C135.838 29.6984 147.086 30.6608 160.499 34.811C189.31 43.8333 211.204 62.8402 223.835 89.8469C232.677 108.734 235.324 132.853 230.993 154.567C229.61 161.664 226.121 171.709 222.753 178.626C219.084 186.085 212.708 196.069 211.685 196.069C211.144 196.069 210.903 195.167 210.903 193.543Z" fill="#333333"/>
<path d="M26.3077 158.657C24.6235 149.875 24.2025 144.883 24.2025 132.612C24.1423 121.305 24.3829 118.417 25.4656 112.763C29.4956 93.0348 38.8186 75.3511 52.6527 61.3966C59.2691 54.66 63.7802 50.5098 64.3817 50.5098C64.502 50.5098 65.1035 51.9533 65.705 53.6976C67.0282 57.8479 69.5545 62.7199 72.201 66.4491C73.6446 68.434 74.3663 70.1182 74.3663 71.3813C74.3663 73.1858 74.0656 73.4865 70.8777 75.1105C63.7802 78.7194 58.0661 83.7719 52.773 91.2905C49.7055 95.6212 49.7055 95.6212 53.9158 95.6212C58.1262 95.6212 58.1262 95.6212 58.1262 97.6662C58.1262 99.4707 57.7654 99.8917 55.4196 101.275C53.9158 102.177 51.0889 104.283 49.0438 105.907C37.2547 115.771 28.7136 137.605 28.6535 158.055C28.6535 160.882 28.473 161.785 27.8114 161.785C27.2099 161.785 26.7287 160.702 26.3077 158.657Z" fill="#333333"/>
<path d="M138.124 76.6743C138.124 74.6894 138.244 74.5691 140.229 74.5691C142.214 74.5691 142.334 74.6894 142.334 76.6743C142.334 78.6592 142.214 78.7795 140.229 78.7795C138.244 78.7795 138.124 78.6592 138.124 76.6743Z" fill="#333333"/>
<path d="M121.282 65.8476C121.282 63.8627 121.402 63.7424 123.387 63.7424C125.372 63.7424 125.493 63.8627 125.493 65.8476C125.493 67.8325 125.372 67.9528 123.387 67.9528C121.402 67.9528 121.282 67.8325 121.282 65.8476Z" fill="#333333"/>
<path d="M182.092 230.354C187.205 222.835 190.152 212.79 188.709 207.618C187.746 204.069 184.679 201.182 180.889 200.28C174.814 198.836 167.897 201.001 145.943 211.347C133.492 217.241 123.568 220.79 115.568 222.294C109.373 223.437 93.4334 223.256 87.599 221.933C73.6445 218.865 60.1111 212.911 54.8181 207.497C51.8106 204.43 51.8106 204.43 51.8106 192.581C51.8106 183.258 52.0512 179.769 52.8933 176.1C53.976 171.408 53.976 171.408 56.0812 171.408C57.645 171.408 58.1262 171.649 58.1262 172.491C58.1864 173.333 58.427 173.213 59.5096 171.95C68.0507 161.784 70.4567 159.018 70.7574 158.777C70.9379 158.597 73.2837 155.89 75.87 152.762C80.5015 147.168 80.5616 147.048 78.9978 146.868C77.6143 146.687 77.3738 146.386 77.3738 144.582C77.3738 143.138 77.6745 142.537 78.276 142.537C78.7572 142.537 79.1782 142.296 79.1782 141.996C79.1782 141.334 85.0728 138.748 90.0651 137.244C94.9973 135.74 105.042 134.537 108.471 135.079C110.876 135.439 111.057 135.56 110.997 137.364C110.997 138.928 110.516 139.53 108.23 141.033C106.666 142.056 104.741 143.8 103.899 144.943C102.155 147.289 102.516 147.108 107.508 143.018C111.899 139.469 122.966 132.252 128.139 129.605C132.831 127.199 132.831 127.199 132.53 120.883C132.349 117.395 131.748 113.064 131.207 111.26C130.665 109.455 130.064 106.929 129.883 105.726C129.583 103.44 129.583 103.44 131.688 103.44C133.011 103.44 133.913 103.801 134.154 104.343C134.395 104.944 134.094 105.245 133.252 105.245C132.289 105.245 132.109 105.485 132.41 106.328C133.492 109.215 134.515 115.23 134.876 121.064C135.116 124.613 135.357 127.5 135.417 127.5C135.477 127.5 138.545 126.417 142.274 125.094C153.221 121.184 163.867 119.921 172.769 121.545C177.461 122.387 188.047 125.816 188.047 126.477C188.047 126.838 186.543 126.898 184.558 126.658C177.581 125.876 178.904 126.958 189.07 130.387C199.054 133.815 199.054 133.815 202.001 138.206C211.024 151.559 214.933 168.1 213.37 186.325C213.009 190.415 212.828 193.964 213.009 194.265C213.189 194.505 212.828 195.347 212.227 196.129C211.625 196.911 210.362 199.498 209.46 201.783C205.37 212.129 197.49 222.715 189.25 228.85C187.265 230.354 180.649 233.963 179.927 233.963C179.747 233.963 180.709 232.339 182.092 230.354ZM208.197 157.514C206.934 152.582 200.678 139.65 199.355 139.048C199.054 138.928 198.874 138.507 198.874 138.146C198.874 137.725 198.272 137.063 197.55 136.582C195.385 135.199 179.626 129.906 176.378 129.425C173.311 129.004 173.311 129.004 173.311 126.477C173.311 123.951 173.311 123.951 169.461 123.53C163.988 122.929 156.048 123.59 150.755 125.094C145.161 126.658 136.861 129.906 137.161 130.447C137.643 131.169 149.672 136.763 153.702 138.146C155.206 138.627 159.476 140.372 163.085 142.056C171.566 145.845 171.687 145.905 182.333 150.356C187.325 152.401 192.438 154.567 193.761 155.168C195.084 155.77 198.332 157.093 200.979 158.176C203.625 159.198 206.452 160.401 207.295 160.822C208.137 161.243 208.858 161.544 208.979 161.424C209.099 161.363 208.738 159.619 208.197 157.514Z" fill="url(#paint0_linear_6_60)"/>
<path d="M27.4505 163.048C26.7889 161.785 26.6084 152.161 27.2099 149.935C27.4505 149.153 27.9918 148.552 28.4129 148.552C29.0745 148.552 29.2549 150.116 29.2549 156.371C29.2549 164.01 28.8339 165.574 27.4505 163.048Z" fill="#666666"/>
<path d="M27.7512 144.582C28.7136 136.582 33.3451 122.207 35.1495 121.605C36.4126 121.184 35.9916 124.553 34.0668 129.364C32.2624 134.056 29.8564 143.74 29.8564 146.447C29.8564 147.589 29.5557 147.95 28.5933 147.95C27.3904 147.95 27.3302 147.77 27.7512 144.582Z" fill="#666666"/>
<path d="M36.4728 117.936C36.4728 117.636 37.8562 115.35 39.4802 112.824C42.9087 107.771 47.6002 103.26 52.9535 99.952C56.5624 97.7265 56.5624 97.7265 54.4572 97.3656C53.3143 97.125 52.8933 96.9445 53.4948 96.8844C54.0361 96.8844 54.5173 96.4032 54.5173 95.922C54.5173 95.2604 55.179 95.0198 56.9233 95.0198C59.2691 95.0198 59.3292 95.0799 59.3292 97.125C59.3292 98.6287 59.0285 99.4106 58.3067 99.6512C57.7052 99.8918 56.8631 100.433 56.4421 100.854C56.021 101.275 55.2391 101.636 54.7579 101.636C54.2767 101.636 53.9158 101.937 53.9158 102.238C53.9158 102.598 53.5549 102.839 53.0738 102.839C52.5926 102.839 52.1114 103.26 51.8708 103.741C51.6903 104.222 50.9686 104.644 50.3069 104.644C49.6453 104.644 49.104 105.004 49.104 105.425C49.104 106.388 44.1718 111.26 43.2094 111.26C42.7884 111.26 42.4876 111.801 42.4876 112.463C42.4876 113.124 42.247 113.666 41.8861 113.666C41.5854 113.666 41.2846 114.087 41.2846 114.568C41.2846 115.049 41.0441 115.47 40.7433 115.47C40.4426 115.47 40.0215 116.132 39.8411 116.974C39.5403 118.057 39.0591 118.478 37.9765 118.478C37.1344 118.478 36.4728 118.237 36.4728 117.936Z" fill="#666666"/>
<path d="M144.139 104.283C144.139 103.32 144.86 102.959 148.229 102.418C153.401 101.516 159.898 99.7113 160.74 98.9294C161.1 98.6286 162.845 97.6663 164.649 96.8242C166.454 95.9821 168.018 95.14 168.078 94.8994C168.198 94.5987 168.559 94.4182 168.86 94.4182C169.16 94.4182 169.882 93.937 170.484 93.3356C171.386 92.4333 171.446 92.0724 170.845 91.5311C170.424 91.1101 169.521 90.8093 168.8 90.8093C168.138 90.8093 167.597 90.5687 167.597 90.2078C167.597 89.9071 167.055 89.6064 166.454 89.6064C164.649 89.6064 163.386 88.9447 163.386 88.0425C163.386 87.5613 162.785 87.2004 161.943 87.2004C161.1 87.2004 160.078 86.8395 159.657 86.3583C159.176 85.9373 158.213 85.3358 157.492 85.1554C156.77 84.9148 156.168 84.3133 156.168 83.8321C156.168 83.3509 155.687 82.99 155.086 82.99C153.883 82.99 150.755 80.0427 150.755 78.8999C150.755 78.4789 150.514 78.1781 150.153 78.1781C149.853 78.1781 149.552 77.3962 149.552 76.3737C149.552 75.291 149.251 74.5692 148.77 74.5692C148.048 74.5692 145.342 66.7499 145.342 64.6447C145.342 64.1635 145.101 63.7425 144.8 63.7425C144.5 63.7425 143.778 62.5395 143.116 61.0358C142.515 59.5321 141.853 58.3291 141.612 58.3291C141.312 58.3291 141.131 57.7878 141.131 57.1262C141.131 56.4645 140.77 55.9232 140.349 55.9232C139.387 55.9232 136.319 52.7955 136.319 51.8331C136.319 51.412 135.778 51.1113 135.116 51.1113C134.455 51.1113 133.913 50.8707 133.913 50.6301C133.913 50.3895 132.951 49.788 131.808 49.367C130.665 48.946 129.703 48.2242 129.703 47.743C129.703 47.2016 129.041 46.9009 127.899 46.9009C126.936 46.9009 126.094 46.7205 126.094 46.4197C126.094 46.1791 124.711 45.6378 122.966 45.2167C119.418 44.3747 116.47 41.9687 116.47 39.9237C116.47 38.9613 116.049 38.4801 115.147 38.3598C114.245 38.2395 113.703 37.6982 113.583 36.8561C113.463 36.0742 112.982 35.4727 112.5 35.4727C112.019 35.4727 111.658 35.0516 111.658 34.5705C111.658 34.0893 111.418 33.6682 111.057 33.6682C110.756 33.6682 110.455 33.1269 110.455 32.4653C110.455 30.6608 112.44 30.9615 113.583 32.9464C115.448 36.1343 121.824 42.5702 123.508 42.9311C124.47 43.1717 127.718 44.5551 130.786 46.0588C140.59 50.8106 145.281 56.8856 149.191 69.8776C150.514 74.2083 151.236 75.6519 153.762 78.4187C157.131 82.0878 163.747 86.1779 170.845 89.065C173.371 90.0875 175.416 91.2304 175.416 91.5913C175.416 93.0348 170.183 97.0046 165.01 99.4707C159.236 102.238 152.68 104.283 147.326 105.004C144.439 105.365 144.139 105.305 144.139 104.283Z" fill="#666666"/>
<path d="M45.495 96.9445C45.495 96.6438 46.3973 95.3807 47.4799 94.0574C48.5626 92.7943 50.728 89.9673 52.2317 87.7418C53.7354 85.5765 55.4195 83.4713 55.9609 83.0502C56.803 82.3284 56.9233 82.5089 56.9233 84.4938C56.9233 86.178 56.6225 86.7794 55.7203 87.02C55.0587 87.2005 54.5173 87.8621 54.5173 88.4636C54.5173 89.1252 54.2767 89.6064 53.9158 89.6064C53.6151 89.6064 53.3143 90.0275 53.3143 90.5086C53.3143 90.9898 53.0738 91.4109 52.7129 91.4109C52.4121 91.4109 52.1114 91.8319 52.1114 92.3131C52.1114 92.7943 51.57 93.2153 50.9084 93.2153C50.0062 93.2153 49.7054 93.6364 49.7054 94.719C49.7054 95.5611 49.2242 96.4633 48.5626 96.8242C47.1191 97.546 45.495 97.6062 45.495 96.9445Z" fill="#666666"/>
<path d="M59.3292 79.9225C61.8554 77.697 67.2688 73.9678 67.8703 73.9678C68.171 73.9678 68.3515 74.6294 68.3515 75.4715C68.3515 76.4339 67.9906 76.9752 67.4493 76.9752C66.9681 76.9752 66.547 77.2759 66.547 77.5767C66.547 77.9376 66.126 78.1782 65.6448 78.1782C65.1636 78.1782 64.7426 78.4789 64.7426 78.7797C64.7426 79.1405 64.0809 79.3811 63.2389 79.3811C62.1562 79.3811 61.7351 79.6819 61.7351 80.5841C61.7351 81.6066 61.3141 81.7871 59.5097 81.7871C57.224 81.7269 57.224 81.7269 59.3292 79.9225Z" fill="#666666"/>
<path d="M129.342 77.8774C122.786 74.5692 119.237 68.7348 121.042 64.1034C121.643 62.4794 125.132 62.8403 126.094 64.5846C127.117 66.5093 130.725 69.0356 136.8 72.1031C141.733 74.5692 141.733 74.5692 141.733 76.9752C141.733 79.3811 141.733 79.3811 137.041 79.3811C133.252 79.3811 131.808 79.0804 129.342 77.8774Z" fill="#666666"/>
<path d="M68.953 73.9678C68.953 73.667 69.7951 72.9452 70.7574 72.464C72.7423 71.4415 72.8025 71.5618 69.7951 67.3514C67.4493 63.9831 65.5245 60.2539 64.0809 56.1036C62.9983 52.9158 62.9983 52.9158 64.4418 52.9158C65.5847 52.9158 65.9456 53.397 66.6072 55.9232C67.0282 57.6074 67.5696 58.9306 67.8102 58.9306C68.0507 58.9306 68.7124 60.1336 69.374 61.6373C69.9755 63.141 70.6371 64.344 70.9379 64.344C71.1785 64.344 71.3589 64.765 71.3589 65.2462C71.3589 65.7274 71.6597 66.1484 71.9604 66.1484C72.3213 66.1484 72.5619 66.6898 72.5619 67.3514C72.5619 68.013 72.9829 68.5544 73.4641 68.5544C74.0656 68.5544 74.3663 69.216 74.3663 70.6596C74.3663 71.8024 74.1257 72.7648 73.7649 72.7648C73.4641 72.7648 73.1634 73.1858 73.1634 73.667C73.1634 74.2685 72.5017 74.5692 71.0582 74.5692C69.9154 74.5692 68.953 74.3286 68.953 73.9678Z" fill="#666666"/>
<path d="M203.986 61.2162C200.979 58.0283 200.979 58.0283 204.167 61.0358C205.851 62.6598 207.295 64.1033 207.295 64.1635C207.295 64.6447 206.753 64.1033 203.986 61.2162Z" fill="#666666"/>
<path d="M53.0738 205.753C50.8483 203.287 50.1866 189.393 51.8107 179.348C55.9609 153.725 78.7572 134.718 105.403 134.718C111.057 134.718 111.057 134.718 111.057 136.823C111.057 138.267 110.636 139.289 109.734 140.011C106.185 142.898 103.839 145.124 103.839 145.725C103.839 146.086 104.26 145.785 104.802 145.063C105.283 144.342 106.065 143.74 106.426 143.74C106.847 143.74 107.508 143.199 107.929 142.537C108.35 141.875 108.892 141.334 109.252 141.334C109.553 141.334 110.516 140.673 111.418 139.83C112.32 138.988 113.403 138.327 113.824 138.327C114.305 138.327 114.666 138.086 114.666 137.785C114.666 136.823 132.41 126.297 134.034 126.297C134.274 126.297 134.515 126.718 134.515 127.199C134.515 128.402 134.936 128.342 139.688 126.417C149.071 122.568 153.161 121.786 164.288 121.786C174.453 121.846 174.574 121.846 180.829 124.011C187.145 126.177 187.145 126.177 180.95 126.237C174.574 126.297 173.13 127.079 178.243 127.68C179.867 127.861 185.22 129.425 190.152 131.229C199.175 134.417 199.175 134.417 201.46 137.725C205.25 143.259 208.979 151.499 210.603 158.116C211.445 161.544 212.046 164.792 211.926 165.333C211.685 166.115 211.625 166.115 211.565 165.213C211.565 164.612 211.204 164.311 210.843 164.491C210.543 164.732 208.858 164.251 207.114 163.409C205.37 162.567 201.821 161.003 199.175 159.98C196.528 158.958 193.28 157.574 191.957 156.973C190.633 156.371 185.521 154.206 180.528 152.161C169.882 147.71 169.762 147.65 161.281 143.86C157.672 142.176 153.402 140.432 151.898 139.951C149.251 139.049 144.981 137.124 137.282 133.395C135.357 132.492 133.372 131.71 132.891 131.71C132.35 131.71 132.109 131.35 132.289 130.868C132.53 130.267 132.35 130.086 131.808 130.327C131.327 130.507 131.086 130.928 131.327 131.289C131.507 131.65 131.387 131.71 130.966 131.47C129.523 130.568 114.666 140.312 103.899 149.334C101.193 151.559 98.9069 153.364 98.7265 153.364C98.3656 153.364 98.9671 150.116 99.6889 147.529C100.591 144.582 103.599 140.853 106.606 138.988C109.252 137.244 109.252 137.244 107.508 137.003C102.456 136.282 87.2381 139.47 87.8396 141.154C88.0201 141.575 87.9599 141.936 87.6592 141.936C87.4186 141.936 85.975 143.62 84.5315 145.665C82.1857 149.033 73.5243 159.8 72.5619 160.582C72.3815 160.762 70.6371 162.807 68.6522 165.093C57.2842 178.686 55.2391 180.671 55.0587 178.205C54.9985 177.604 54.6376 178.867 54.1564 181.032C53.1339 185.964 53.1339 196.851 54.1564 202.565C54.5775 204.911 54.6978 206.896 54.5173 206.896C54.2767 206.896 53.6753 206.415 53.0738 205.753Z" fill="url(#paint1_linear_6_60)"/>
<path d="M27.7512 146.026C28.5933 139.71 30.5782 131.951 32.8639 125.996C35.33 119.741 40.202 111.26 42.4876 109.155C43.7507 108.012 43.7507 108.012 43.5703 110.358C43.45 112.343 43.1493 112.824 42.0666 112.944C40.9839 113.125 40.6832 113.546 40.6832 114.929C40.6832 116.072 40.3824 116.673 39.7809 116.673C39.2998 116.673 38.8787 117.215 38.8787 117.876C38.8787 119.32 36.4126 124.493 35.751 124.493C35.5104 124.493 35.2698 125.154 35.2698 125.996C35.2698 126.839 35.0292 127.5 34.6683 127.5C34.3676 127.5 34.0668 127.921 34.0668 128.402C34.0668 128.884 33.3451 131.65 32.503 134.538C31.6609 137.485 30.6985 141.936 30.2775 144.522C29.7361 148.432 29.4354 149.154 28.473 149.154C27.4505 149.154 27.3903 148.853 27.7512 146.026Z" fill="#999999"/>
<path d="M132.109 117.094C132.109 116.012 131.568 113.064 130.906 110.598C130.244 108.132 129.703 105.425 129.703 104.523C129.703 102.839 129.703 102.839 134.214 102.839C138.304 102.839 138.725 102.959 138.725 104.042C138.725 105.125 138.304 105.245 135.116 105.245C131.628 105.245 131.507 105.305 132.109 106.448C132.831 107.771 134.515 115.951 134.515 117.936C134.515 118.658 134.094 119.079 133.312 119.079C132.35 119.079 132.109 118.658 132.109 117.094Z" fill="#999999"/>
<path d="M47.2995 104.343C47.7206 103.862 50.0062 102.178 52.352 100.614C54.6978 99.11 56.803 97.6664 57.0436 97.486C57.2842 97.2454 55.6602 97.1852 53.3745 97.3055C49.7055 97.5461 49.1641 97.4258 48.9235 96.4635C48.6829 95.4409 48.6228 95.4409 48.5626 96.4033C48.5025 97.0649 48.0213 97.4258 46.9988 97.4258C45.1943 97.4258 45.2545 97.2454 48.5025 93.035C49.6453 91.4711 50.8483 90.208 51.149 90.208C51.3896 90.208 51.5099 91.2907 51.3896 92.6139C51.149 95.0199 51.149 95.0199 55.5399 95.0199C59.9307 95.0199 59.9307 95.0199 59.9307 97.1251C59.9307 98.5687 59.63 99.2303 59.0285 99.2303C58.5473 99.2303 58.1262 99.531 58.1262 99.8318C58.1262 100.193 57.4646 100.433 56.6225 100.433C55.6602 100.433 55.1188 100.794 55.1188 101.335C55.1188 101.817 54.6978 102.238 54.2166 102.238C53.7354 102.238 53.3144 102.538 53.3144 102.839C53.3144 103.2 52.773 103.441 52.1114 103.441C51.4498 103.441 50.9084 103.862 50.9084 104.343C50.9084 105.005 50.2468 105.245 48.7431 105.245C46.8785 105.245 46.6379 105.125 47.2995 104.343Z" fill="#999999"/>
<path d="M141.733 104.223C141.733 103.14 142.274 102.96 145.883 102.599C150.274 102.238 161.341 98.9296 162.664 97.6064C163.085 97.1853 164.288 96.8244 165.251 96.8244C166.394 96.8244 166.995 96.5237 166.995 95.9222C166.995 95.441 167.416 95.02 167.897 95.02C168.378 95.02 168.799 94.7794 168.799 94.4185C168.799 94.1177 169.341 93.817 170.002 93.817C170.664 93.817 171.205 93.4561 171.205 92.9749C171.205 92.4937 170.664 91.8922 170.002 91.7118C169.341 91.5314 168.799 91.0502 168.799 90.7494C168.799 90.4487 168.138 90.2081 167.296 90.2081C166.333 90.2081 165.792 89.8472 165.792 89.3059C165.792 88.7645 165.251 88.4036 164.349 88.4036C162.243 88.4036 160.98 87.8021 160.98 86.8398C160.98 86.3586 160.379 85.9977 159.476 85.9977C158.574 85.9977 157.973 85.6368 157.973 85.1556C157.973 84.6143 157.251 84.1932 156.349 84.0729C154.905 83.8925 154.604 83.5917 154.484 81.8474C154.244 79.7422 154.244 79.7422 156.289 81.3061C159.537 83.7722 165.491 87.0202 170.303 89.0653C172.769 90.0878 174.935 91.1103 175.115 91.4111C175.777 92.4336 170.484 96.5237 164.89 99.2905C158.454 102.418 152.259 104.283 145.763 104.944C142.033 105.366 141.733 105.305 141.733 104.223Z" fill="#999999"/>
<path d="M52.8332 87.0804C55.2993 83.4715 60.2916 78.9002 65.0433 75.8326C67.6297 74.1485 70.0357 72.765 70.4567 72.765C70.8777 72.765 71.5394 72.344 71.9604 71.8628C72.5017 71.2012 72.3814 70.5997 71.1785 69.0358C67.4493 64.1638 62.3968 53.0965 63.2389 51.7131C63.4193 51.3522 63.9607 51.1116 64.4418 51.1116C65.3441 51.1116 67.75 57.6678 67.75 60.2541C67.75 61.5173 68.0508 61.9383 68.953 61.9383C69.7349 61.9383 70.2762 62.4796 70.5168 63.442C70.6973 64.2841 71.1183 64.9457 71.4191 64.9457C71.7198 64.9457 71.9604 65.3668 71.9604 65.848C71.9604 66.3291 72.2611 66.7502 72.5619 66.7502C72.9228 66.7502 73.1634 67.2915 73.1634 67.9532C73.1634 68.6148 73.5243 69.1561 74.0055 69.1561C75.028 69.1561 75.5693 70.4794 75.5693 72.8252C75.5693 74.2687 75.3287 74.5695 74.0656 74.5695C72.5619 74.5695 68.171 76.3739 67.8703 77.1559C67.75 77.3965 67.2688 77.5769 66.7876 77.5769C66.3064 77.5769 65.9456 77.8777 65.9456 78.1784C65.9456 78.5393 65.5847 78.7799 65.1035 78.7799C64.6223 78.7799 64.1411 79.2009 63.9005 79.6821C63.7201 80.1633 62.9983 80.5843 62.3366 80.5843C61.675 80.5843 61.1337 80.9452 61.1337 81.3663C61.1337 82.5091 57.3443 85.9977 56.1413 85.9977C55.4797 85.9977 55.1188 86.4789 55.1188 87.5014C55.1188 88.7645 54.8181 89.0051 53.2542 89.0051C51.4498 89.0051 51.4498 89.0051 52.8332 87.0804Z" fill="#999999"/>
<path d="M133.192 79.5617C132.229 79.4414 131.507 79.0204 131.507 78.7197C131.507 78.4189 130.846 78.1783 130.004 78.1783C129.162 78.1783 128.5 77.9377 128.5 77.5768C128.5 77.2761 128.079 76.9753 127.598 76.9753C127.117 76.9753 126.696 76.7348 126.696 76.3739C126.696 76.0731 126.335 75.7724 125.914 75.7724C125.072 75.7724 122.485 73.1258 122.485 72.2236C122.485 71.9229 122.184 71.562 121.763 71.4417C121.402 71.3214 120.981 69.5771 120.801 67.4719C120.56 63.7427 120.56 63.7427 123.327 63.7427C125.312 63.7427 126.094 63.9833 126.094 64.5848C126.094 65.0659 126.515 65.5471 126.996 65.7877C127.477 65.9682 127.899 66.5095 127.899 67.0508C127.899 67.532 128.44 67.9531 129.101 67.9531C129.763 67.9531 130.304 68.1937 130.304 68.4944C130.304 68.7952 130.966 69.2162 131.808 69.3966C132.891 69.6974 133.312 70.1786 133.312 71.2612C133.312 72.1033 133.071 72.765 132.771 72.765C131.628 72.765 125.072 67.8929 124.29 66.4494C123.026 64.1036 122.184 66.0885 123.327 68.735C125.132 73.186 131.989 77.5768 136.981 77.5768C140.59 77.5768 141.071 76.8551 138.425 75.5919C135.838 74.389 135.718 73.3664 138.124 73.3664C141.312 73.3664 142.936 74.5093 142.936 76.7949C142.936 78.5994 142.755 78.7798 141.131 78.7798C140.169 78.7798 139.327 79.0805 139.327 79.3813C139.327 79.9828 136.44 80.0429 133.192 79.5617Z" fill="#999999"/>
<path d="M150.153 78.7196C150.153 78.3587 149.732 77.6971 149.251 77.2159C148.77 76.6746 148.349 75.6521 148.349 74.8701C148.349 74.0882 148.169 73.3664 147.868 73.2461C147.206 72.9454 144.74 64.8253 144.74 62.9006C144.74 59.5924 146.244 61.7577 148.409 68.0733C149.552 71.6221 151.236 75.5919 152.138 76.9152C153.762 79.3813 153.762 79.3813 151.958 79.3813C150.996 79.3813 150.153 79.0805 150.153 78.7196Z" fill="#999999"/>
<path d="M141.733 58.6903C141.733 58.2091 141.432 57.7279 141.071 57.6076C140.71 57.4873 140.53 56.4648 140.65 55.322C140.83 53.2168 140.83 53.2168 142.815 55.8633C145.161 59.0512 145.221 59.5324 143.236 59.5324C142.334 59.5324 141.733 59.1715 141.733 58.6903Z" fill="#999999"/>
<path d="M134.515 51.1114C134.515 50.8107 134.094 50.51 133.613 50.51C133.131 50.51 132.71 49.9686 132.71 49.307C132.71 48.4048 132.289 48.104 131.086 48.104C130.244 48.104 127.538 47.3822 125.132 46.48C121.463 45.0966 120.681 44.5553 120.681 43.4726C120.681 42.0892 120.681 42.0892 125.072 43.653C129.643 45.3372 136.8 49.2468 138.124 50.7506C138.785 51.5926 138.605 51.7129 136.68 51.7129C135.477 51.7129 134.515 51.4723 134.515 51.1114Z" fill="#999999"/>
<path d="M87.7193 41.1269C86.2156 40.1043 85.9149 38.4803 87.2381 38.4803C87.7193 38.4803 88.2005 38.0593 88.4411 37.5781C88.6215 37.0969 89.1027 36.6759 89.5238 36.6759C89.9448 36.6759 91.0275 36.2548 91.9899 35.8338C92.8921 35.3526 93.6139 35.1722 93.6139 35.4127C93.6139 35.7135 95.1777 36.1345 97.1025 36.315C98.9671 36.4954 102.636 37.0368 105.223 37.3976C109.854 38.1194 109.854 38.1194 109.854 40.1043C109.854 42.0892 109.854 42.0892 99.4483 42.0892C91.0275 42.0892 88.802 41.9088 87.7193 41.1269Z" fill="#999999"/>
<path d="M115.688 40.4652C115.448 40.2847 115.267 39.4427 115.267 38.6607C115.267 37.6382 114.906 37.2773 114.004 37.2773C113.282 37.2773 112.621 36.7961 112.44 36.0743C112.26 35.4127 111.899 34.8714 111.598 34.8714C111.298 34.8714 111.057 34.0894 111.057 33.0669C111.057 32.1045 111.298 31.2625 111.538 31.2625C111.839 31.2625 113.403 32.9466 115.027 34.9917C120.019 41.3674 119.778 40.8862 117.794 40.8862C116.831 40.8862 115.869 40.7058 115.688 40.4652Z" fill="#999999"/>
<path d="M53.1339 205.693C52.2918 204.731 51.3295 203.889 51.0889 203.889C50.0062 203.889 46.8785 199.859 45.9161 197.272C43.7507 191.258 43.0891 186.807 43.0891 177.423C43.0891 163.349 45.6153 153.424 52.352 141.094C58.427 129.906 69.6748 117.275 78.9376 111.14C85.4337 106.809 94.9973 102.418 101.734 100.614C107.027 99.2303 108.952 99.0499 117.673 98.9897C125.673 98.9897 127.959 99.1702 129.402 99.9521C132.169 101.396 138.425 102.839 142.094 102.839C144.5 102.839 145.342 103.08 145.342 103.681C145.342 105.005 142.274 105.426 136.5 104.944C131.568 104.523 131.327 104.523 131.748 105.606C133.192 109.275 134.034 114.267 134.334 120.944C134.695 128.523 134.695 128.523 129.342 131.35C122.245 135.139 115.147 139.891 107.869 145.785C98.6663 153.244 99.0272 153.003 99.0272 152.041C99.0272 147.83 102.937 141.515 107.147 138.928C108.29 138.207 109.252 137.365 109.252 137.064C109.252 136.222 102.095 136.402 96.7416 137.425C74.7272 141.635 57.1639 159.439 53.6151 181.153C52.2317 189.694 52.6527 201.122 54.5775 205.633C55.4797 207.738 54.8782 207.798 53.1339 205.693Z" fill="#CCCCCC"/>
<path d="M28.052 164.251C27.0896 162.386 27.3302 161.183 28.6535 161.183C29.6159 161.183 29.8564 161.604 29.8564 163.289C29.8564 165.634 29.0144 166.055 28.052 164.251Z" fill="#CCCCCC"/>
<path d="M27.4505 150.537C27.4505 147.47 29.1948 138.026 30.7587 132.733C32.5631 126.538 35.5104 119.681 36.4126 119.681C37.6156 119.681 37.0743 122.809 34.9691 128.042C32.4428 134.357 30.5782 141.936 30.0369 147.83C29.7361 151.499 29.4955 152.161 28.5933 152.161C27.7512 152.161 27.4505 151.74 27.4505 150.537Z" fill="#CCCCCC"/>
<path d="M36.4728 118.718C36.4728 117.876 40.202 111.982 42.1267 109.756C44.2319 107.35 44.2319 107.35 44.2921 109.636C44.2921 111.44 44.1116 111.862 43.0891 111.862C42.1869 111.862 41.8861 112.283 41.8861 113.365C41.8861 114.328 41.5253 114.869 40.9839 114.869C40.5027 114.869 40.0817 115.41 40.0817 116.012C40.0817 118.117 39.3599 119.079 37.9163 119.079C37.1344 119.079 36.4728 118.899 36.4728 118.718Z" fill="#CCCCCC"/>
<path d="M46.4574 105.185C47.0589 104.463 50.0062 102.298 52.9535 100.373C57.3443 97.4861 58.0661 96.8245 56.7428 96.8245C55.8406 96.8245 55.1188 96.5839 55.1188 96.2831C55.1188 95.5614 56.6827 95.02 58.7879 95.02C60.3517 95.02 60.5322 95.2005 60.5322 97.0651C60.5322 99.1703 59.7503 99.8319 57.4646 99.8319C56.8631 99.8319 56.3218 100.253 56.3218 100.734C56.3218 101.215 55.9007 101.636 55.4196 101.636C54.9384 101.636 54.5173 101.937 54.5173 102.238C54.5173 102.599 54.0963 102.839 53.6151 102.839C53.1339 102.839 52.7129 103.14 52.7129 103.441C52.7129 103.802 52.2317 104.042 51.5701 104.042C50.9686 104.042 50.3069 104.584 50.1265 105.245C49.8859 106.208 49.2844 106.448 47.5401 106.448C45.3146 106.448 45.3146 106.448 46.4574 105.185Z" fill="#CCCCCC"/>
<path d="M146.545 103.561C146.545 102.358 148.83 101.636 152.74 101.636C153.642 101.636 154.364 101.396 154.364 101.035C154.364 100.734 155.206 100.433 156.168 100.433C157.191 100.433 157.973 100.193 157.973 99.8317C157.973 99.531 158.634 99.2303 159.476 99.2303C160.319 99.2303 160.98 98.9897 160.98 98.6288C160.98 98.328 161.822 98.0273 162.785 98.0273C163.927 98.0273 164.589 97.7265 164.589 97.1852C164.589 96.2228 165.852 95.6213 167.957 95.6213C168.98 95.6213 169.401 95.2605 169.401 94.4184C169.401 93.5161 169.822 93.2154 170.965 93.2154C172.348 93.2154 172.408 93.0951 171.566 92.3132C171.085 91.832 170.363 91.4109 169.942 91.4109C169.461 91.4109 167.957 90.9899 166.574 90.4486C164.83 89.7268 163.988 89.0652 163.988 88.3434C163.988 87.4411 163.506 87.2006 161.882 87.2006C160.439 87.2006 159.777 86.8998 159.777 86.2983C159.777 85.757 159.236 85.3961 158.274 85.3961C157.071 85.3961 156.77 85.0954 156.77 83.8924C156.77 83.0503 156.89 82.3887 157.071 82.3887C157.251 82.3887 159.476 83.5916 162.063 85.0352C164.589 86.5389 168.499 88.4637 170.784 89.3659C173.01 90.2681 174.814 91.3508 174.814 91.7718C174.814 93.0951 169.942 96.7642 164.95 99.1701C159.958 101.576 153.642 103.621 149.131 104.343C146.845 104.704 146.545 104.644 146.545 103.561Z" fill="#CCCCCC"/>
<path d="M46.0965 96.8243C46.0965 96.5236 46.8183 95.3807 47.7807 94.2981C48.6829 93.2154 50.4272 90.8094 51.6904 88.9448C52.9535 87.0802 54.5173 85.0352 55.1188 84.4939C56.3218 83.4112 56.3218 83.4713 56.3218 85.6367C56.3218 87.381 56.0812 87.9825 55.1188 88.2231C54.4572 88.4035 53.9158 89.0651 53.9158 89.6666C53.9158 90.3283 53.6753 90.8094 53.3745 90.8094C53.0738 90.8094 52.6527 91.4711 52.4723 92.3132C52.1715 93.3958 51.6904 93.8169 50.6077 93.8169C49.7656 93.8169 49.104 94.1176 49.104 94.4184C49.104 94.7792 49.946 95.0198 50.9084 95.0198C53.0738 95.0198 53.3745 96.5236 51.3896 97.0649C49.2844 97.6062 46.0965 97.4859 46.0965 96.8243Z" fill="#CCCCCC"/>
<path d="M58.7277 80.8851C58.7277 80.3437 66.2463 75.0507 69.0733 73.6071C70.8176 72.765 72.3213 72.344 72.9829 72.5846C74.0054 73.0056 74.0054 72.9455 73.0431 71.562C67.2688 63.3818 63.6599 55.8031 63.1186 50.8108C62.9983 49.4875 62.7577 44.7358 62.5772 40.2247C62.2765 31.9843 62.2765 31.9843 68.171 33.1271C74.1859 34.2098 82.0052 36.4353 83.0879 37.2774C83.4488 37.5781 84.772 37.939 86.0953 38.1796C87.4186 38.4202 88.8621 38.9014 89.2832 39.2623C89.7042 39.563 90.6064 39.9239 91.3884 39.9841C92.1101 40.0442 93.0725 40.1645 93.4936 40.2247C94.877 40.345 94.2153 41.8487 92.2906 42.9915C90.9673 43.7734 88.802 44.1945 85.4938 44.3749C81.2834 44.6155 80.0804 44.4351 76.7723 43.1118C74.6671 42.2096 72.8626 41.6081 72.7423 41.7284C72.4416 42.0291 78.1557 50.2695 81.8849 55.0212C84.351 58.1489 85.1931 59.7128 85.1931 61.1563C85.1931 63.0209 85.0728 63.1412 83.0277 63.1412C80.5015 63.1412 78.9376 63.863 76.3512 66.3291C74.4265 68.1336 73.7649 69.7576 74.9678 69.7576C75.3287 69.7576 75.5693 70.6598 75.5693 71.8026C75.5693 73.5469 75.3287 73.968 73.7047 74.5093C72.622 74.8702 71.1183 75.1709 70.3965 75.1709C69.4943 75.1709 68.953 75.5318 68.953 76.0732C68.953 76.5544 68.5319 76.9754 68.0507 76.9754C67.5696 76.9754 67.1485 77.2761 67.1485 77.5769C67.1485 77.9378 66.7275 78.1784 66.2463 78.1784C65.7651 78.1784 65.3441 78.4791 65.3441 78.7799C65.3441 79.1407 64.8027 79.3813 64.1411 79.3813C63.4795 79.3813 62.9381 79.8024 62.9381 80.2836C62.9381 80.8851 62.2765 81.1858 60.8329 81.1858C59.6901 81.1858 58.7277 81.0655 58.7277 80.8851Z" fill="#CCCCCC"/>
<path d="M131.688 79.3211C130.605 79.0203 129.703 78.479 129.703 78.1782C129.703 77.8174 129.162 77.5768 128.5 77.5768C127.838 77.5768 127.297 77.3362 127.297 76.9753C127.297 76.6745 126.876 76.3738 126.395 76.3738C125.793 76.3738 125.493 75.7723 125.493 74.5693C125.493 72.9453 125.312 72.7649 123.688 72.7649C122.305 72.7649 121.884 72.5243 121.884 71.5619C121.884 70.9003 121.643 70.3589 121.282 70.3589C120.981 70.3589 120.681 69.3966 120.681 68.2537C120.681 67.1109 120.981 66.1485 121.282 66.1485C121.643 66.1485 121.884 65.4869 121.884 64.6448C121.884 63.3216 122.124 63.1411 123.989 63.1411C125.853 63.1411 126.154 63.3216 126.515 64.9456C126.756 66.2087 127.177 66.75 128.019 66.75C128.62 66.75 129.282 67.1711 129.462 67.6523C129.703 68.1334 130.184 68.5545 130.665 68.5545C131.147 68.5545 131.507 68.9755 131.507 69.4567C131.507 69.9379 132.049 70.3589 132.71 70.3589C134.154 70.3589 139.327 72.825 139.327 73.4867C139.327 73.7273 139.988 73.9678 140.83 73.9678C142.214 73.9678 142.334 74.2084 142.334 76.6144C142.334 78.8399 142.094 79.3211 141.011 79.6218C139.026 80.103 133.913 79.9827 131.688 79.3211ZM139.868 77.276C141.071 76.9151 140.349 76.3738 135.056 73.7874C130.906 71.7424 127.838 69.7575 125.974 67.8928C122.966 64.8854 122.124 64.9456 122.786 68.0733C123.568 71.5619 129.643 76.3738 134.816 77.6369C136.62 78.0579 137.282 77.9978 139.868 77.276Z" fill="#CCCCCC"/>
<path d="M149.552 76.9754C149.552 75.7725 149.251 75.171 148.65 75.171C148.048 75.171 147.748 74.5695 147.748 73.3665C147.748 72.4042 147.507 71.5621 147.266 71.5621C147.026 71.5621 146.003 69.1561 145.041 66.1487C144.018 63.2014 143.056 60.7353 142.815 60.7353C142.515 60.7353 142.334 60.3143 142.334 59.8331C142.334 59.3519 142.094 58.9309 141.733 58.9309C141.432 58.9309 141.131 58.5098 141.131 58.0287C141.131 57.5475 140.891 57.1264 140.53 57.1264C140.229 57.1264 139.928 56.1641 139.928 54.9611C139.928 53.5777 140.169 52.9762 140.59 53.2769C142.394 54.3596 146.124 61.5173 148.048 67.5923C149.251 71.2613 150.875 75.2913 151.717 76.5544C153.161 78.7799 153.161 78.7799 151.356 78.7799C149.732 78.7799 149.552 78.5994 149.552 76.9754Z" fill="#CCCCCC"/>
<path d="M135.116 51.713C135.116 51.4122 134.695 51.1115 134.214 51.1115C133.733 51.1115 133.312 50.8709 133.312 50.6303C133.312 50.3897 132.35 49.7882 131.207 49.3672C130.064 48.9462 129.101 48.3447 129.101 48.0439C129.101 47.7432 128.56 47.5026 127.899 47.5026C127.237 47.5026 126.696 47.262 126.696 46.9011C126.696 46.6004 126.154 46.2996 125.493 46.2996C124.831 46.2996 122.906 45.7583 121.162 45.0967C117.914 43.8335 109.734 42.6907 104.02 42.6907C101.674 42.6907 100.832 42.4501 100.832 41.8486C100.832 41.3674 100.471 40.8261 100.11 40.7058C99.6889 40.5254 101.373 40.3449 103.839 40.2848C108.35 40.1645 108.35 40.1645 104.14 39.3825C101.854 38.9615 98.125 38.4202 95.8995 38.1796C93.6139 37.939 91.8094 37.5179 91.8094 37.2172C91.8094 36.9165 92.4711 35.6533 93.253 34.3902C94.0349 33.1872 94.877 31.3828 95.0574 30.3603C96.7416 20.9771 96.3807 21.4583 100.23 23.5033C102.155 24.5259 105.403 26.6912 107.388 28.3152C109.433 29.9392 111.298 31.2625 111.598 31.2625C111.839 31.2625 112.801 32.285 113.643 33.5481C114.485 34.7511 116.47 37.2773 118.154 39.0818C120.681 41.9689 121.884 42.6907 126.214 44.3749C131.026 46.1793 138.124 50.2093 138.966 51.6528C139.267 52.0739 138.665 52.3145 137.282 52.3145C136.079 52.3145 135.116 52.0739 135.116 51.713Z" fill="#CCCCCC"/>
<path d="M48.0814 201.362C41.7057 194.806 30.4579 176.942 30.4579 173.453C30.4579 172.852 30.097 171.288 29.6158 169.905C27.6911 164.431 27.27 160.642 27.6309 153.063C28.2926 140.251 30.8188 130.387 36.2923 119.26C40.6832 110.297 46.1567 104.523 55.3594 98.9895C58.9683 96.8241 58.9683 96.8241 52.4723 96.8241C45.9161 96.8241 45.9161 96.8241 47.5401 94.8392C48.3822 93.8167 50.0062 91.5912 51.0888 89.9071C56.021 82.5088 66.547 73.7873 71.5393 72.9452C72.7423 72.7647 73.7648 72.464 73.7648 72.2234C73.7648 72.0429 73.1634 71.0806 72.3814 70.1182C70.998 68.3739 70.998 68.3739 73.4039 65.7274C76.3512 62.4793 77.494 61.8177 80.8624 61.3365C83.3886 61.0358 83.3886 61.0358 80.0804 56.8254C73.5242 48.585 66.9681 37.8786 67.8703 36.9162C68.1109 36.7358 71.0582 37.8786 74.4866 39.4424C79.9601 42.0288 81.1631 42.3897 84.5916 42.3897C87.4787 42.3897 89.0426 42.089 90.3057 41.2469C91.8695 40.2244 92.7718 40.1642 100.471 40.5251C114.245 41.1868 119.057 41.8484 124.711 43.9536C138.124 48.8858 143.236 53.9984 147.687 66.9905C149.011 70.7798 150.394 74.5692 150.815 75.291C152.98 79.5615 162.364 86.238 170.784 89.6063C172.649 90.3281 174.393 91.2303 174.574 91.5311C175.777 93.4558 162.724 100.974 154.364 103.14C148.289 104.704 138.545 105.004 133.552 103.741C131.267 103.2 128.62 102.298 127.598 101.756C126.214 101.035 123.989 100.794 117.673 100.854C107.628 100.914 100.591 102.538 91.2681 107.049C82.7871 111.2 77.4339 114.809 71.1183 120.884C58.4871 132.973 49.2242 149.093 46.0364 164.491C44.5928 171.288 44.5327 183.258 45.7958 188.851C46.8183 193.242 49.4047 200.52 50.6678 202.565C52.0512 204.67 50.7881 204.129 48.0814 201.362ZM140.65 77.0954C140.951 76.7947 139.206 75.5917 135.958 74.0278C129.883 71.1407 125.132 67.8325 124.59 66.1484C124.109 64.7048 123.207 64.5845 122.726 65.8476C121.402 69.1558 126.756 74.9902 133.252 77.3962C135.537 78.2382 139.688 78.0578 140.65 77.0954Z" fill="white"/>
</g>
<defs>
<linearGradient id="paint0_linear_6_60" x1="11.5111" y1="8.70652" x2="8.50371" y2="11.4132" gradientUnits="userSpaceOnUse">
<stop stop-color="#8D8E8D"/>
<stop offset="0.01" stop-color="#8B8C8B"/>
<stop offset="0.02" stop-color="#8A8C8A"/>
<stop offset="0.03" stop-color="#8A8B8A"/>
<stop offset="0.04" stop-color="#828382"/>
<stop offset="0.05" stop-color="#878987"/>
<stop offset="0.12" stop-color="#848584"/>
<stop offset="0.13" stop-color="#838583"/>
<stop offset="0.14" stop-color="#838483"/>
<stop offset="0.24" stop-color="#7D7E7D"/>
<stop offset="0.25" stop-color="#7C7E7C"/>
<stop offset="0.26" stop-color="#7C7D7C"/>
<stop offset="0.28" stop-color="#7B7C7B"/>
<stop offset="0.29" stop-color="#7A7C7A"/>
<stop offset="0.3" stop-color="#7A7B7A"/>
<stop offset="0.31" stop-color="#797B79"/>
<stop offset="0.37" stop-color="#777877"/>
<stop offset="0.38" stop-color="#767876"/>
<stop offset="0.92" stop-color="#616261"/>
<stop offset="0.93" stop-color="#5F605E"/>
<stop offset="0.94" stop-color="#5F5F5E"/>
<stop offset="0.98" stop-color="#5D5E5C"/>
<stop offset="1" stop-color="#5D5D5D"/>
</linearGradient>
<linearGradient id="paint1_linear_6_60" x1="11.5111" y1="8.70669" x2="8.50372" y2="11.4134" gradientUnits="userSpaceOnUse">
<stop stop-color="#8D8E8D"/>
<stop offset="0.01" stop-color="#8B8C8B"/>
<stop offset="0.02" stop-color="#8A8C8A"/>
<stop offset="0.03" stop-color="#8A8B8A"/>
<stop offset="0.04" stop-color="#828382"/>
<stop offset="0.05" stop-color="#878987"/>
<stop offset="0.12" stop-color="#848584"/>
<stop offset="0.13" stop-color="#838583"/>
<stop offset="0.14" stop-color="#838483"/>
<stop offset="0.24" stop-color="#7D7E7D"/>
<stop offset="0.25" stop-color="#7C7E7C"/>
<stop offset="0.26" stop-color="#7C7D7C"/>
<stop offset="0.28" stop-color="#7B7C7B"/>
<stop offset="0.29" stop-color="#7A7C7A"/>
<stop offset="0.3" stop-color="#7A7B7A"/>
<stop offset="0.31" stop-color="#797B79"/>
<stop offset="0.37" stop-color="#777877"/>
<stop offset="0.38" stop-color="#767876"/>
<stop offset="0.92" stop-color="#616261"/>
<stop offset="0.93" stop-color="#5F605E"/>
<stop offset="0.94" stop-color="#5F5F5E"/>
<stop offset="0.98" stop-color="#5D5E5C"/>
<stop offset="1" stop-color="#5D5D5D"/>
</linearGradient>
<clipPath id="clip0_6_60">
<rect width="256" height="256" rx="60" fill="white"/>
</clipPath>
</defs>
</svg>
