<svg width="256" height="256" viewBox="0 0 256 256" fill="none" xmlns="http://www.w3.org/2000/svg">
<g clip-path="url(#clip0_2_415)">
<rect width="256" height="256" rx="60" fill="#242938"/>
<g clip-path="url(#clip1_2_415)">
<path d="M234.824 74.7704L242 56.1774L241.688 55.0255L170.69 73.7374C178.26 62.7837 175.66 54 175.66 54C175.66 54 152.987 68.4835 135.841 68.1045C118.695 67.7255 113.168 63.1479 86.8774 71.5378C60.5866 79.9202 53.1577 105.655 45.5356 111.184C37.9136 116.712 14 134.718 14 134.718L14.052 135.038L35.6106 128.171C35.6106 128.171 29.6972 133.745 17.135 150.681C17.135 150.681 16.9196 150.48 16.5481 150.138L16.5704 150.257C16.5704 150.257 26.6663 165.692 36.5764 162.838C37.5719 162.548 38.6936 162.073 39.9194 161.449C43.9087 163.671 49.1164 165.855 54.8663 166.457C54.8663 166.457 50.9736 161.932 47.7272 156.782C48.6038 156.217 49.5027 155.63 50.4164 155.035L49.993 155.333L58.2019 158.35L57.2956 150.629C57.3253 150.614 57.3476 150.591 57.3773 150.577L65.4451 153.542L64.4421 146.519C65.4673 145.984 66.4851 145.479 67.5029 145.011L75.9124 113.19L110.687 89.462L107.923 96.4176C100.873 113.762 87.6351 117.857 87.6351 117.857L82.108 119.952C77.9999 124.812 76.2689 126.009 74.8574 142.32C78.1707 141.488 81.3354 141.288 84.203 142.06C99.0608 146.066 104.209 163.975 100.205 168.932C99.2019 170.173 96.8172 172.291 93.8085 174.78H87.7763L87.6946 179.67C87.4866 179.833 87.2786 179.99 87.078 180.153H80.9417L80.8674 184.924C80.3251 185.34 79.7828 185.741 79.2628 186.135C73.498 186.254 66.1954 181.223 66.1954 181.223C66.1954 185.801 70.0064 192.846 70.0064 192.846C70.0064 192.846 70.259 192.727 70.6824 192.519C70.311 192.794 70.103 192.942 70.103 192.942C70.103 192.942 85.5328 203.235 95.2497 199.422C103.89 196.034 126.258 178.392 145.566 170.039L203.994 154.642L211.698 134.674L167.169 146.408V128.476L219.416 114.706L227.12 94.7382L167.184 110.537V92.5979L234.824 74.7704Z" fill="white"/>
</g>
</g>
<defs>
<clipPath id="clip0_2_415">
<rect width="256" height="256" fill="white"/>
</clipPath>
<clipPath id="clip1_2_415">
<rect width="228" height="147" fill="white" transform="translate(14 54)"/>
</clipPath>
</defs>
</svg>
