<svg width="256" height="256" viewBox="0 0 256 256" fill="none" xmlns="http://www.w3.org/2000/svg">
<g clip-path="url(#clip0_2_463)">
<rect width="256" height="256" rx="60" fill="#242938"/>
<g clip-path="url(#clip1_2_463)">
<path d="M104.556 110.528L-10.3056 13.3055C-14.9972 9.37943 -20.4957 6.53463 -26.4107 4.97315C-32.3257 3.41168 -38.5119 3.17184 -44.53 4.27068C-50.5481 5.36953 -56.2504 7.7801 -61.2319 11.3312C-66.2134 14.8822 -70.3518 19.4866 -73.3532 24.8174C-76.3545 30.1481 -78.1453 36.0744 -78.5982 42.1752C-79.051 48.276 -78.1549 54.4017 -75.9735 60.1171C-73.7921 65.8326 -70.3789 70.9976 -65.9763 75.2453C-61.5738 79.4929 -56.2899 82.719 -50.5 84.6944H-50.0833L-49 85.0277L95.8889 129.167C96.9402 129.546 98.0488 129.744 99.1667 129.75C101.42 129.738 103.607 128.993 105.398 127.626C107.189 126.259 108.486 124.346 109.092 122.176C109.698 120.006 109.58 117.698 108.757 115.601C107.933 113.504 106.448 111.733 104.528 110.556L104.556 110.528Z" fill="url(#paint0_linear_2_463)"/>
<path d="M127.583 -49.9722C127.616 -55.4401 126.167 -60.8147 123.389 -65.5244C120.61 -70.2341 116.608 -74.1026 111.806 -76.7186C107.004 -79.3346 101.583 -80.6001 96.1197 -80.3806C90.6561 -80.1612 85.3541 -78.4649 80.7778 -75.4722L-59.5 9.6945C-64.2697 12.8033 -68.3517 16.8567 -71.494 21.6044C-74.6363 26.3521 -76.7723 31.6934 -77.7701 37.2987C-78.7679 42.904 -78.6064 48.6543 -77.2955 54.1947C-75.9847 59.7352 -73.5522 64.9482 -70.1484 69.512C-66.7445 74.0758 -62.4414 77.8936 -57.5048 80.7298C-52.5681 83.566 -47.1025 85.3604 -41.4454 86.0022C-35.7883 86.644 -30.0597 86.1197 -24.6131 84.4615C-19.1665 82.8033 -14.1175 80.0465 -9.77777 76.3612L115.972 -26.111L116.972 -26.9444C120.296 -29.7912 122.965 -33.3229 124.797 -37.2976C126.628 -41.2722 127.579 -45.5958 127.583 -49.9722Z" fill="url(#paint1_linear_2_463)"/>
<path d="M331.583 133.556L118.75 -71.4167C115.868 -74.3088 112.432 -76.5888 108.647 -78.1199C104.862 -79.6509 100.807 -80.4013 96.7246 -80.3262C92.6425 -80.251 88.6177 -79.3518 84.8917 -77.6825C81.1658 -76.0132 77.8156 -73.6082 75.0422 -70.612C72.2688 -67.6157 70.1294 -64.09 68.7524 -60.2464C67.3755 -56.4028 66.7894 -52.3206 67.0293 -48.2448C67.2693 -44.1691 68.3303 -40.1838 70.1487 -36.5283C71.9671 -32.8728 74.5053 -29.6224 77.6111 -26.9723L78 -26.6389L304.111 163.861C307.095 166.364 310.731 167.962 314.592 168.468C318.453 168.975 322.378 168.368 325.906 166.719C329.434 165.071 332.417 162.449 334.506 159.162C336.594 155.875 337.7 152.061 337.694 148.167C337.694 145.448 337.154 142.756 336.105 140.248C335.056 137.74 333.519 135.465 331.583 133.556Z" fill="url(#paint2_linear_2_463)"/>
<path d="M337.722 148.25C337.75 144.472 336.729 140.761 334.772 137.529C332.816 134.297 330.001 131.671 326.641 129.943C323.282 128.216 319.508 127.455 315.741 127.744C311.975 128.034 308.362 129.363 305.306 131.583L47.7778 257.417C42.6428 259.997 38.0971 263.611 34.4263 268.033C30.7556 272.455 28.0392 277.588 26.4479 283.11C24.8566 288.632 24.4248 294.423 25.1797 300.12C25.9345 305.817 27.8597 311.297 30.8342 316.214C33.8086 321.131 37.7681 325.379 42.4637 328.693C47.1593 332.006 52.4894 334.312 58.1191 335.466C63.7489 336.619 69.5564 336.596 75.1768 335.398C80.7971 334.199 86.1087 331.85 90.7778 328.5L328.917 165.055C331.635 163.176 333.856 160.665 335.39 157.738C336.924 154.81 337.724 151.555 337.722 148.25Z" fill="url(#paint3_linear_2_463)"/>
<path d="M44.6667 44.6667H211.333V211.333H44.6667V44.6667Z" fill="black"/>
<path d="M62.8056 180.083H125.306V190.5H62.8056V180.083Z" fill="white"/>
<path d="M60.1944 87.639L64.8333 83.2501C65.2748 83.9468 65.875 84.5289 66.5847 84.949C67.2944 85.369 68.0936 85.615 68.9167 85.6668C70.6945 85.6668 71.8611 84.4168 71.8611 82.0001V65.5557H79.0278V82.0557C79.1349 83.3843 78.9629 84.7206 78.5228 85.9788C78.0827 87.2369 77.3842 88.3891 76.4722 89.3612C75.5305 90.2809 74.4128 91.001 73.1861 91.4783C71.9594 91.9557 70.649 92.1803 69.3333 92.139C67.5556 92.2106 65.7882 91.8364 64.192 91.0505C62.5958 90.2645 61.2216 89.0918 60.1944 87.639Z" fill="white"/>
<path d="M82.25 65.5557H103.167V71.639H89.2778V75.6112H101.75V81.1668H89.3889V85.3057H103.278V91.4168H82.1667L82.25 65.5557Z" fill="white"/>
<path d="M113.361 71.8612H105.583V65.5557H128.389V71.8612H120.583V91.5557H113.361V71.8612Z" fill="white"/>
<path d="M63.0833 101.833H75.3611C76.6357 101.729 77.9184 101.878 79.1345 102.274C80.3506 102.67 81.4758 103.304 82.4444 104.139C82.9966 104.692 83.4313 105.352 83.7225 106.077C84.0137 106.803 84.1553 107.58 84.1389 108.361C84.1597 109.629 83.7822 110.871 83.0595 111.912C82.3369 112.954 81.3057 113.742 80.1111 114.167C81.5889 114.438 82.9215 115.227 83.8687 116.394C84.8159 117.56 85.3156 119.026 85.2778 120.528C85.2778 125.222 81.6389 128 75.4167 128H63.0833V101.833ZM76.9722 109.861C76.9722 108.417 75.8056 107.639 73.6944 107.639H70.1111V112.195H73.5833C75.75 112.195 77.0278 111.445 77.0278 109.945L76.9722 109.861ZM74.4722 117.25H70.1111V122.056H74.6111C76.8333 122.056 78.0555 121.195 78.0555 119.667C78 118.195 76.9444 117.25 74.5278 117.25H74.4722Z" fill="white"/>
<path d="M87.5833 101.833H99.1111C100.637 101.709 102.173 101.891 103.627 102.368C105.082 102.845 106.427 103.607 107.583 104.611C108.363 105.408 108.97 106.357 109.367 107.399C109.764 108.441 109.941 109.553 109.889 110.667C109.939 112.396 109.45 114.097 108.489 115.536C107.528 116.974 106.144 118.078 104.528 118.694L110.75 128H102.417L97.1667 120.111H94.75V128H87.5278L87.5833 101.833ZM98.6944 114.333C101.111 114.333 102.583 113.139 102.583 111.222C102.583 109.139 101.056 108.083 98.6667 108.083H94.8056V114.389L98.6944 114.333Z" fill="white"/>
<path d="M119.917 101.639H126.861L137.972 127.861H130.222L128.361 123.167H118.278L116.417 128H108.889L119.917 101.639ZM126.25 117.556L123.333 110.194L120.389 117.556H126.25Z" fill="white"/>
<path d="M139.111 101.75H146.333V127.778H139.111V101.75Z" fill="white"/>
<path d="M149 101.75H155.778L165.139 115.639V101.75H172.278V127.778H165.972L156.167 113.5V127.778H149V101.75Z" fill="white"/>
<path d="M173.472 123.917L177.472 119.111C179.815 121.07 182.753 122.176 185.806 122.25C187.778 122.25 188.806 121.556 188.806 120.445C188.806 119.306 187.972 118.75 184.389 117.917C178.833 116.639 174.583 115.139 174.583 109.778C174.583 104.945 178.417 101.445 184.667 101.445C188.53 101.3 192.32 102.53 195.361 104.917L191.889 109.861C189.788 108.273 187.244 107.38 184.611 107.306C182.861 107.306 182 108 182 108.972C182 110.167 182.889 110.695 186.528 111.5C192.5 112.806 196.194 114.75 196.194 119.611C196.194 124.917 192 127.945 185.694 127.945C181.266 128.133 176.921 126.701 173.472 123.917Z" fill="white"/>
</g>
</g>
<defs>
<linearGradient id="paint0_linear_2_463" x1="-31.3333" y1="47.8888" x2="107.917" y2="115.611" gradientUnits="userSpaceOnUse">
<stop offset="0.21" stop-color="#FE2857"/>
<stop offset="1" stop-color="#293896"/>
</linearGradient>
<linearGradient id="paint1_linear_2_463" x1="-73.7222" y1="72.0556" x2="108.417" y2="-63.0277" gradientUnits="userSpaceOnUse">
<stop stop-color="#FE2857"/>
<stop offset="0.01" stop-color="#FE2857"/>
<stop offset="0.86" stop-color="#FF318C"/>
</linearGradient>
<linearGradient id="paint2_linear_2_463" x1="84.0278" y1="-62.0556" x2="323.194" y2="155.111" gradientUnits="userSpaceOnUse">
<stop offset="0.02" stop-color="#FF318C"/>
<stop offset="0.21" stop-color="#FE2857"/>
<stop offset="0.86" stop-color="#FDB60D"/>
</linearGradient>
<linearGradient id="paint3_linear_2_463" x1="309.833" y1="127.444" x2="30.9722" y2="319.389" gradientUnits="userSpaceOnUse">
<stop offset="0.01" stop-color="#FDB60D"/>
<stop offset="0.86" stop-color="#FCF84A"/>
</linearGradient>
<clipPath id="clip0_2_463">
<rect width="256" height="256" rx="60" fill="white"/>
</clipPath>
<clipPath id="clip1_2_463">
<rect width="500" height="500" fill="white" transform="translate(-122 -122)"/>
</clipPath>
</defs>
</svg>
