<svg width="256" height="256" viewBox="0 0 256 256" fill="none" xmlns="http://www.w3.org/2000/svg">
<g clip-path="url(#clip0_1_220)">
<rect width="256" height="256" rx="60" fill="#242938"/>
<path d="M41.1268 133.918C41.1268 140.822 40.5744 143.071 39.154 144.728C37.5731 146.151 35.5207 146.938 33.3934 146.937L33.9457 150.882C37.2439 150.927 40.4442 149.762 42.9418 147.608C44.2857 145.969 45.2857 144.077 45.8822 142.043C46.4788 140.01 46.6596 137.877 46.4139 135.772V109.655H41.1268V133.76V133.918Z" fill="#B1B1B1"/>
<path d="M80.557 130.806C80.557 133.765 80.557 136.408 80.7937 138.696H76.0984L75.7828 134.002C74.8007 135.663 73.3962 137.034 71.7122 137.977C70.0281 138.919 68.1245 139.399 66.1949 139.367C61.6179 139.367 56.173 136.882 56.173 126.742V109.896H61.4601V125.677C61.4601 131.161 63.1568 134.83 67.931 134.83C68.9132 134.841 69.8876 134.655 70.7972 134.284C71.7067 133.913 72.533 133.364 73.2276 132.67C73.9221 131.975 74.4711 131.149 74.8421 130.24C75.2131 129.33 75.3988 128.356 75.3882 127.374V109.699H80.6753V130.648L80.557 130.806Z" fill="#B1B1B1"/>
<path d="M90.5789 119.282C90.5789 115.613 90.5789 112.615 90.3421 109.892H95.0769L95.3136 114.824C96.3685 113.042 97.8872 111.58 99.7077 110.593C101.528 109.607 103.582 109.133 105.651 109.222C112.674 109.222 117.962 115.1 117.962 123.858C117.962 134.195 111.609 139.324 104.744 139.324C102.986 139.402 101.239 139.026 99.6697 138.231C98.1006 137.436 96.7633 136.25 95.7871 134.787V150.568H90.5789V119.4V119.282ZM95.7871 126.975C95.8014 127.691 95.8806 128.404 96.0238 129.106C96.4715 130.857 97.4906 132.41 98.9198 133.517C100.349 134.625 102.107 135.224 103.915 135.221C109.478 135.221 112.753 130.684 112.753 124.095C112.753 118.335 109.676 113.404 104.112 113.404C101.911 113.584 99.8505 114.561 98.3178 116.151C96.7852 117.742 95.8854 119.837 95.7871 122.044V126.975Z" fill="#B1B1B1"/>
<path d="M127.382 109.866L133.734 126.87C134.405 128.763 135.115 131.051 135.589 132.748C136.141 131.012 136.733 128.803 137.443 126.751L143.204 109.866H148.767L140.876 130.381C136.93 140.244 134.523 145.333 130.893 148.411C129.065 150.08 126.836 151.249 124.423 151.803L123.121 147.385C124.808 146.83 126.375 145.96 127.737 144.82C129.662 143.252 131.189 141.251 132.196 138.981C132.411 138.588 132.558 138.161 132.63 137.719C132.585 137.243 132.465 136.777 132.274 136.338L121.542 109.787H127.303L127.382 109.866Z" fill="#B1B1B1"/>
<path d="M162.803 101.589V109.874H170.379V113.819H162.803V129.364C162.803 132.914 163.829 134.966 166.749 134.966C167.786 134.983 168.82 134.864 169.826 134.611L170.063 138.556C168.555 139.079 166.963 139.319 165.368 139.266C164.311 139.332 163.253 139.169 162.265 138.788C161.278 138.406 160.384 137.816 159.647 137.057C158.039 134.908 157.306 132.229 157.595 129.561V113.78H153.097V109.835H157.674V102.812L162.803 101.589Z" fill="#B1B1B1"/>
<path d="M180.118 125.204C180.011 126.542 180.196 127.887 180.659 129.147C181.123 130.406 181.855 131.55 182.804 132.499C183.753 133.449 184.897 134.18 186.157 134.644C187.417 135.108 188.762 135.293 190.1 135.185C192.807 135.246 195.496 134.735 197.992 133.686L198.899 137.631C195.837 138.893 192.543 139.498 189.232 139.407C187.302 139.539 185.366 139.252 183.557 138.566C181.748 137.88 180.109 136.81 178.753 135.431C177.396 134.052 176.353 132.396 175.697 130.576C175.04 128.756 174.785 126.816 174.949 124.888C174.949 116.209 180.118 109.344 188.562 109.344C198.031 109.344 200.399 117.629 200.399 122.916C200.449 123.73 200.449 124.547 200.399 125.362H180L180.118 125.204ZM195.585 121.259C195.737 120.204 195.662 119.129 195.363 118.106C195.065 117.083 194.55 116.135 193.855 115.328C193.16 114.52 192.299 113.871 191.331 113.424C190.364 112.977 189.312 112.743 188.246 112.737C186.078 112.894 184.047 113.855 182.551 115.431C181.054 117.008 180.201 119.086 180.157 121.259H195.585Z" fill="#B1B1B1"/>
<path d="M208.421 118.837C208.421 115.444 208.421 112.525 208.184 109.842H212.919V115.484H213.156C213.652 113.742 214.679 112.199 216.093 111.068C217.508 109.937 219.239 109.274 221.047 109.171C221.544 109.106 222.048 109.106 222.546 109.171V114.103C221.943 114.033 221.334 114.033 220.731 114.103C218.94 114.172 217.235 114.891 215.936 116.125C214.636 117.36 213.83 119.025 213.668 120.81C213.521 121.617 213.442 122.435 213.432 123.256V138.603H208.223V118.877L208.421 118.837Z" fill="#B1B1B1"/>
<path d="M206.104 30.6232C206.266 33.2736 205.635 35.9123 204.292 38.2031C202.949 40.4939 200.954 42.333 198.562 43.4863C196.17 44.6396 193.489 45.0548 190.86 44.679C188.231 44.3032 185.773 43.1534 183.8 41.3761C181.827 39.5989 180.428 37.2745 179.781 34.6992C179.133 32.1239 179.267 29.4142 180.166 26.9154C181.064 24.4165 182.686 22.2416 184.825 20.6676C186.963 19.0937 189.522 18.1919 192.176 18.0773C193.915 17.9816 195.656 18.2307 197.299 18.8102C198.942 19.3898 200.454 20.2884 201.749 21.4543C203.043 22.6202 204.094 24.0305 204.842 25.604C205.589 27.1776 206.018 28.8833 206.104 30.6232Z" fill="#767677"/>
<path d="M128.084 185.131C92.5737 185.131 61.3636 172.388 45.226 153.569C51.4874 170.499 62.7855 185.104 77.5995 195.419C92.4133 205.734 110.032 211.264 128.084 211.264C146.136 211.264 163.755 205.734 178.569 195.419C193.383 185.104 204.681 170.499 210.943 153.569C194.845 172.388 163.753 185.131 128.084 185.131Z" fill="#F37726"/>
<path d="M128.084 62.7575C163.595 62.7575 194.805 75.5006 210.943 94.3193C204.681 77.3897 193.383 62.7844 178.569 52.4693C163.755 42.1543 146.136 36.6246 128.084 36.6246C110.032 36.6246 92.4133 42.1543 77.5995 52.4693C62.7855 62.7844 51.4874 77.3897 45.226 94.3193C61.3636 75.4612 92.416 62.7575 128.084 62.7575Z" fill="#F37726"/>
<path d="M79.1995 221.753C79.4078 225.091 78.6174 228.416 76.9291 231.304C75.2408 234.192 72.731 236.511 69.7194 237.968C66.7079 239.424 63.3309 239.951 60.0188 239.481C56.7067 239.011 53.6094 237.567 51.1215 235.331C48.6336 233.094 46.8678 230.168 46.049 226.925C45.2302 223.682 45.3955 220.269 46.5238 217.12C47.6521 213.971 49.6924 211.229 52.3847 209.244C55.077 207.259 58.2995 206.12 61.6414 205.972C63.8307 205.855 66.0216 206.17 68.089 206.9C70.1564 207.63 72.0597 208.76 73.6902 210.225C75.3207 211.691 76.6466 213.463 77.5918 215.441C78.5371 217.419 79.0834 219.564 79.1995 221.753Z" fill="#616161"/>
<path d="M49.2618 58.4689C47.3483 58.5217 45.462 58.0077 43.8399 56.9914C42.2179 55.9751 40.9326 54.502 40.1457 52.7573C39.3587 51.0125 39.1053 49.074 39.4172 47.1856C39.7292 45.2973 40.5926 43.5432 41.8988 42.1442C43.2051 40.7452 44.8959 39.7636 46.7587 39.3228C48.6214 38.8821 50.5728 39.0019 52.3677 39.6672C54.1625 40.3325 55.7205 41.5136 56.8457 43.0619C57.971 44.6103 58.6133 46.4567 58.6918 48.3691C58.7666 50.9549 57.8183 53.4659 56.0527 55.3568C54.2872 57.2478 51.8469 58.3661 49.2618 58.4689Z" fill="#616262"/>
</g>
<defs>
<clipPath id="clip0_1_220">
<rect width="256" height="256" fill="white"/>
</clipPath>
</defs>
</svg>
