<svg width="256" height="256" viewBox="0 0 256 256" fill="none" xmlns="http://www.w3.org/2000/svg">
<g clip-path="url(#clip0_4_2)">
<rect width="256" height="256" rx="60" fill="#F4F2ED"/>
<path fill-rule="evenodd" clip-rule="evenodd" d="M99.7259 152.188L157.952 179.102C165.169 182.439 170.263 188.04 173.014 194.465C179.972 210.734 170.462 227.373 155.534 233.358C140.602 239.339 124.689 235.49 117.453 218.571L92.1132 159.171C90.1496 154.567 95.0824 150.042 99.7259 152.188Z" fill="#FFC233"/>
<path fill-rule="evenodd" clip-rule="evenodd" d="M103.202 134.766L163.319 112.051C183.299 104.502 205.124 118.786 204.829 139.54C204.824 139.812 204.82 140.082 204.813 140.356C204.381 160.566 183.163 174.15 163.622 167L103.259 144.917C98.4439 143.156 98.4083 136.578 103.202 134.766Z" fill="#FFC233"/>
<path fill-rule="evenodd" clip-rule="evenodd" d="M99.8458 126.899L158.938 101.799C178.574 93.457 183.557 68.4214 168.178 53.9558C167.977 53.7653 167.775 53.5771 167.571 53.3889C152.493 39.3985 127.568 44.3244 118.984 62.7518L92.4671 119.684C90.3514 124.224 95.133 128.9 99.8458 126.899Z" fill="#FFC233"/>
<path fill-rule="evenodd" clip-rule="evenodd" d="M84.6393 116.98L106.125 58.0922C108.789 50.7905 108.296 43.3443 105.542 36.9196C98.5679 20.6568 79.6817 15.4073 64.752 21.4005C49.8247 27.396 41.3896 41.0122 48.641 57.9246L74.1524 117.26C76.1307 121.858 82.9267 121.677 84.6393 116.98Z" fill="#FFC233"/>
</g>
<defs>
<clipPath id="clip0_4_2">
<rect width="256" height="256" rx="60" fill="white"/>
</clipPath>
</defs>
</svg>
