<svg width="256" height="256" viewBox="0 0 256 256" fill="none" xmlns="http://www.w3.org/2000/svg">
<g clip-path="url(#clip0_1_354)">
<rect width="256" height="256" rx="60" fill="#242938"/>
<g clip-path="url(#clip1_1_354)">
<path d="M182.367 169.905L182.418 221.153L136.894 243.847V192.621L182.367 169.905ZM237 142.515V193.942L198.173 213.3L198.145 162.107L237 142.515ZM182.298 101.31L182.349 152.02L136.893 174.585V123.857L182.298 101.31ZM237 74.1427V124.535L198.134 144.273L198.1 93.4608L237 74.1427ZM129.973 68.1812L170.604 88.6696L128.449 109.818L88.5856 89.817L129.973 68.1812ZM73.4574 39.683L112.211 59.2246L70.728 80.8544L30.9271 60.8869L73.4574 39.683ZM184.238 39.9794L225.979 60.8869L188.648 79.6181L147.933 59.1018L184.238 39.9794ZM128.698 12.1527L166.274 30.9728L130.244 50.1901L91.5227 30.6807L128.698 12.1527Z" fill="#4DABCF"/>
<path d="M120.824 123.857L90.1605 108.458V175.021C90.1605 175.021 52.6627 95.3144 49.1882 88.1547C48.7406 87.2308 46.897 86.2172 46.4257 85.9716C39.7021 82.4447 20 72.4745 20 72.4745V190.074L47.2555 204.629V143.159C47.2555 143.159 84.3558 214.38 84.7313 215.158C85.1068 215.937 88.8339 223.443 92.812 226.079C98.1124 229.584 120.83 243.231 120.83 243.231L120.824 123.857Z" fill="#4D77CF"/>
</g>
</g>
<defs>
<clipPath id="clip0_1_354">
<rect width="256" height="256" fill="white"/>
</clipPath>
<clipPath id="clip1_1_354">
<rect width="217" height="232" fill="white" transform="translate(20 12)"/>
</clipPath>
</defs>
</svg>
