<svg width="256" height="256" viewBox="0 0 256 256" fill="none" xmlns="http://www.w3.org/2000/svg">
<g clip-path="url(#clip0_1_370)">
<rect width="256" height="256" rx="60" fill="#242938"/>
<g clip-path="url(#clip1_1_370)">
<path d="M102.828 122.034C93.4335 116.61 86.0909 108.237 81.9395 98.2147C77.788 88.1922 77.0596 77.0798 79.8674 66.6011C82.6751 56.1224 88.8621 46.863 97.4686 40.259C106.075 33.6549 116.62 30.0753 127.469 30.0753C138.317 30.0753 148.862 33.6549 157.469 40.259C166.075 46.863 172.262 56.1224 175.07 66.6011C177.878 77.0798 177.15 88.1922 172.998 98.2147C168.847 108.237 161.504 116.61 152.109 122.034L137.272 96.3344C141.009 94.1766 143.93 90.8457 145.582 86.8584C147.233 82.8711 147.523 78.4503 146.406 74.2816C145.289 70.1129 142.828 66.4292 139.404 63.8019C135.98 61.1746 131.785 59.7506 127.469 59.7506C123.153 59.7506 118.958 61.1746 115.534 63.8019C112.11 66.4292 109.649 70.1129 108.532 74.2816C107.415 78.4503 107.704 82.8711 109.356 86.8584C111.008 90.8457 113.929 94.1766 117.666 96.3344L102.828 122.034Z" fill="#FF0101"/>
<path d="M208.36 133.967C217.755 139.391 225.098 147.763 229.249 157.786C233.401 167.808 234.129 178.921 231.321 189.399C228.514 199.878 222.327 209.138 213.72 215.742C205.114 222.346 194.568 225.925 183.72 225.925C172.872 225.925 162.326 222.346 153.72 215.742C145.113 209.138 138.926 199.878 136.119 189.399C133.311 178.921 134.039 167.808 138.191 157.786C142.342 147.763 149.685 139.391 159.08 133.967L173.917 159.666C170.18 161.824 167.259 165.155 165.607 169.142C163.955 173.129 163.666 177.55 164.783 181.719C165.9 185.888 168.361 189.571 171.785 192.199C175.209 194.826 179.404 196.25 183.72 196.25C188.036 196.25 192.231 194.826 195.655 192.199C199.079 189.571 201.54 185.888 202.657 181.719C203.774 177.55 203.484 173.129 201.833 169.142C200.181 165.155 197.26 161.824 193.522 159.666L208.36 133.967Z" fill="#0101FF"/>
<path d="M121.562 176.643C121.562 187.491 117.983 198.036 111.379 206.643C104.774 215.25 95.5149 221.437 85.0361 224.245C74.5573 227.053 63.4448 226.324 53.4221 222.173C43.3994 218.021 35.0266 210.678 29.6023 201.283C24.1781 191.888 22.0055 180.966 23.4215 170.21C24.8375 159.455 29.7629 149.467 37.434 141.796C45.105 134.125 55.0929 129.199 65.8485 127.783C76.6042 126.367 87.5265 128.54 96.9216 133.964L82.0837 159.664C78.346 157.506 74.0008 156.642 69.7219 157.205C65.443 157.768 61.4695 159.728 58.4177 162.779C55.366 165.831 53.4065 169.805 52.8432 174.084C52.2798 178.363 53.1442 182.708 55.3021 186.445C57.46 190.183 60.7909 193.104 64.7783 194.756C68.7656 196.407 73.1865 196.697 77.3552 195.58C81.524 194.463 85.2077 192.002 87.835 188.578C90.4624 185.154 91.8864 180.958 91.8864 176.643L121.562 176.643Z" fill="#01FF01"/>
</g>
</g>
<defs>
<clipPath id="clip0_1_370">
<rect width="256" height="256" fill="white"/>
</clipPath>
<clipPath id="clip1_1_370">
<rect width="210" height="210" fill="white" transform="translate(23 23)"/>
</clipPath>
</defs>
</svg>
