<svg width="256" height="256" viewBox="0 0 256 256" fill="none" xmlns="http://www.w3.org/2000/svg">
<g clip-path="url(#clip0_1_149)">
<rect width="256" height="256" rx="60" fill="#242938"/>
<g clip-path="url(#clip1_1_149)">
<path d="M100.367 157.999C99.3889 157.822 99.0056 157.756 98.6223 157.684C86.2319 155.377 78.3995 147.867 74.6879 136.061C72.3743 128.703 76.5784 123.284 84.2842 122.927C90.5939 122.634 94.9125 126.266 98.7316 130.493C103.655 135.942 108.167 141.761 113.003 147.292C119.965 155.254 128.167 160.381 139.391 158.799C149.454 157.379 158.224 153.335 165.855 146.677C167.003 145.676 168.261 144.804 169.469 143.872C169.215 143.573 168.962 143.273 168.708 142.973C162.302 144.966 155.768 145.636 149.093 145.299C138.992 144.79 129.367 142.678 120.755 137.124C112.896 132.055 107.101 125.262 104.346 116.19C102.121 108.861 106.675 103.734 114.258 104.794C117.256 105.212 119.779 106.565 122.044 108.482C123.889 110.042 125.658 111.696 127.539 113.209C136.389 120.332 148.756 120.728 159.991 112.995C141.521 112.91 128.956 102.735 117.919 89.8394C113.599 84.7921 109.382 79.6545 104.974 74.6871C96.443 65.0746 86.9794 56.6061 74.021 53.7172C57.4682 50.0266 41.4876 52.4387 26.1488 59.475C23.0903 60.8777 20.1531 62.5089 17 65.1372C18.5609 65.1372 19.4125 65.1563 20.2624 65.1346C27.9959 64.9348 33.7914 68.377 37.9712 74.7132C41.0133 79.3244 42.4468 84.5393 43.5394 89.9045C45.161 97.8667 44.3216 105.984 45.2582 113.983C47.6655 134.546 58.1584 148.896 77.6962 156.244C84.8609 158.939 92.2094 159.837 100.367 157.999ZM50.9903 64.1957C47.9031 64.9756 45.4359 63.7275 42.8934 61.1504C47.2475 60.0639 51.0874 59.6426 55.2135 59.4802C54.8762 62.1632 53.2961 63.6137 50.9903 64.1957ZM152.155 184.277C151.886 182.297 150.197 181.425 148.87 180.39C142.997 175.811 136.129 174.191 128.847 174.056C124.502 173.976 120.201 173.651 116.103 172.125C114.225 171.426 112.124 170.528 112.171 168.097C112.219 165.63 114.362 164.933 116.312 164.349C117.909 163.871 119.556 163.566 121.374 163.141C116.757 160.177 112.247 159.766 106.237 162.187C96.7769 165.997 87.4503 165.545 78.0196 162.134C72.6951 160.209 67.9698 157.188 63.0503 154.511L62.9158 154.604C62.98 154.56 63.0477 154.513 63.0433 154.516C62.9219 154.144 62.7016 154.134 62.4189 154.342C62.5482 154.455 62.6765 154.568 62.8048 154.681C66.885 161.378 72.3968 166.767 78.6232 171.372C90.6147 180.24 103.713 185.529 119.038 183.182C123.988 182.424 128.976 181.836 133.968 181.433C140.227 180.926 146.191 182.691 152.155 184.277ZM123.261 88.196C122.93 87.9554 122.611 87.3518 121.935 87.9763C127.448 95.446 134.532 100.953 143.06 104.419C156.825 110.014 170.796 110.971 185.084 106.034C196.177 102.202 204.155 105.946 208.297 116.734C208.896 104.212 201.542 95.089 189.827 93.3006C183.236 92.2948 177.151 94.4845 170.978 96.2781C153.798 101.267 137.833 98.8039 123.261 88.196ZM208.884 137.034C211.123 137.223 213.361 137.426 215.599 137.622C210.542 133.172 204.378 132.82 198.142 133.175C188.646 133.715 181.805 139.2 175.568 145.754C170.072 151.53 165.107 158.009 156.906 160.33C157.043 160.577 157.079 160.7 157.117 160.7C158.22 160.717 159.325 160.769 160.426 160.718C172.337 160.178 183.557 157.662 192.483 149.004C195.294 146.277 197.809 143.249 200.523 140.419C202.786 138.059 205.531 136.751 208.884 137.034ZM181.215 122.249C172.326 123.027 164.605 126.71 157.353 131.566C151.77 135.304 145.801 137.072 139.092 135.903C137.912 135.697 136.723 135.544 135.538 135.366C135.525 135.531 135.512 135.696 135.498 135.862C135.924 136.082 136.336 136.339 136.78 136.516C137.898 136.958 138.999 137.492 140.16 137.768C153.069 140.842 165.426 139.267 176.568 132.059C183.59 127.515 190.86 126.655 198.739 127.828C199.535 127.947 200.328 128.092 201.127 128.167C201.868 128.237 202.641 128.975 203.641 128.176C196.753 123.192 189.334 121.539 181.215 122.249ZM149.446 92.029C154.109 92.1906 158.751 91.5791 163.628 88.6772C162.2 88.804 161.594 88.8014 161.013 88.9178C154.294 90.2589 148.263 88.791 142.89 84.5367C140.919 82.975 138.915 81.455 136.919 79.9255C129.005 73.8629 119.93 71.8347 110.003 72.0067C110.164 72.4957 110.173 72.831 110.346 73.0047C121.147 83.947 133.647 91.4836 149.446 92.029ZM227.616 148.172C220.932 141.532 211.962 140.676 203.661 146.471C209.156 146.719 213.28 148.474 216.625 151.943C217.809 153.17 219.036 154.375 220.36 155.445C225.417 159.531 233.991 159.727 239 155.937C233.116 153.637 233.116 153.637 227.616 148.172ZM161.045 199.022C155.171 188.07 145.298 185.599 133.893 186.334C137.264 187.27 140.413 188.711 143.302 190.732C145.957 192.588 148.191 194.886 150.393 197.24C154.755 201.903 161.564 204.765 166.076 203.798C164.005 202.49 162.165 201.109 161.045 199.022ZM215.705 137.848C215.706 137.778 215.708 137.708 215.713 137.635C215.713 137.634 215.704 137.644 215.695 137.653L215.714 137.632C215.676 137.629 215.637 137.626 215.599 137.622C215.621 137.643 215.646 137.659 215.668 137.68C215.68 137.736 215.693 137.792 215.705 137.848ZM152.481 184.534C152.404 184.49 152.326 184.447 152.249 184.403C152.26 184.453 152.272 184.501 152.298 184.541C152.313 184.567 152.417 184.538 152.481 184.534ZM152.249 184.403C152.242 184.368 152.236 184.331 152.227 184.296C152.227 184.296 152.214 184.312 152.2 184.329L152.227 184.296C152.203 184.29 152.179 184.283 152.155 184.277C152.159 184.306 152.169 184.33 152.173 184.361C152.199 184.375 152.224 184.389 152.249 184.403Z" fill="#FD4F00"/>
</g>
</g>
<defs>
<clipPath id="clip0_1_149">
<rect width="256" height="256" fill="white"/>
</clipPath>
<clipPath id="clip1_1_149">
<rect width="222" height="152" fill="white" transform="translate(17 52)"/>
</clipPath>
</defs>
</svg>
