<svg width="256" height="256" viewBox="0 0 256 256" fill="none" xmlns="http://www.w3.org/2000/svg">
<g clip-path="url(#clip0_1_2)">
<rect width="256" height="256" rx="60" fill="#F4F2ED"/>
<g clip-path="url(#clip1_1_2)">
<path d="M202.993 231.654L165.471 194.579L164.898 194.661V194.254L85.1032 115.957L104.765 97.0944L93.2139 31.2374L38.4064 98.7206C29.0669 108.071 27.3465 123.275 34.0644 134.495L68.3088 190.921C73.5519 199.62 83.0551 204.824 93.2958 204.742L110.254 204.58L202.993 231.654Z" fill="#18B6F6"/>
<path d="M223.471 97.4191L215.933 83.5975L212.001 76.524L210.445 73.7595L210.281 73.9223L189.636 38.3919C184.474 29.4483 174.807 23.9196 164.321 24L146.216 24.4887L92.2272 24.6513C81.9869 24.7326 72.6476 30.0987 67.4862 38.7984L34.6344 103.517L93.3743 31.0744L170.384 115.144L156.702 128.884L164.894 194.66L164.976 194.497V194.66H164.812L164.976 194.823L171.366 201.002L202.416 231.166C203.727 232.386 205.857 230.922 204.955 229.377L185.785 191.896L219.211 130.511L220.275 129.291C220.685 128.803 221.095 128.315 221.423 127.827C227.977 118.965 228.878 107.095 223.471 97.4191Z" fill="#AC7EF4"/>
<path d="M170.628 114.819L93.3735 31.1559L104.351 96.6878L84.6895 115.632L164.73 194.579L157.52 129.047L170.628 114.819Z" fill="white"/>
</g>
</g>
<defs>
<clipPath id="clip0_1_2">
<rect width="256" height="256" fill="white"/>
</clipPath>
<clipPath id="clip1_1_2">
<rect width="197" height="208" fill="white" transform="translate(30 24)"/>
</clipPath>
</defs>
</svg>
