<svg width="256" height="256" viewBox="0 0 256 256" fill="none" xmlns="http://www.w3.org/2000/svg">
<g clip-path="url(#clip0_1_382)">
<rect width="256" height="256" rx="60" fill="black"/>
<mask id="mask0_1_382" style="mask-type:luminance" maskUnits="userSpaceOnUse" x="0" y="0" width="256" height="256">
<path d="M192 0H64C28.6538 0 0 28.6538 0 64V192C0 227.346 28.6538 256 64 256H192C227.346 256 256 227.346 256 192V64C256 28.6538 227.346 0 192 0Z" fill="white"/>
</mask>
<g mask="url(#mask0_1_382)">
<path fill-rule="evenodd" clip-rule="evenodd" d="M195.646 195.882C201.871 189.658 203.044 181.239 202.358 173.968C201.662 166.603 198.958 158.606 195.117 150.63C191.656 143.442 187.042 135.796 181.457 128C187.042 120.204 191.656 112.558 195.117 105.37C198.958 97.3936 201.662 89.3968 202.358 82.032C203.044 74.7607 201.871 66.3419 195.646 60.1178C189.422 53.8937 181.004 52.7204 173.732 53.4068C166.368 54.1019 158.371 56.8069 150.394 60.6476C143.206 64.1086 135.56 68.7229 127.765 74.3074C119.969 68.7229 112.323 64.1086 105.134 60.6476C97.1576 56.8069 89.1608 54.1019 81.7968 53.4068C74.5251 52.7204 66.1063 53.8937 59.8822 60.1178C53.6582 66.3419 52.4848 74.7607 53.1712 82.032C53.8664 89.3968 56.5714 97.3936 60.412 105.37C63.8731 112.558 68.4874 120.204 74.0718 128C68.4874 135.796 63.8731 143.442 60.412 150.63C56.5714 158.606 53.8664 166.603 53.1712 173.968C52.4848 181.239 53.6582 189.658 59.8822 195.882C66.1063 202.106 74.5251 203.28 81.7968 202.594C89.1608 201.898 97.1576 199.193 105.134 195.353C112.323 191.891 119.969 187.277 127.765 181.693C135.56 187.277 143.206 191.891 150.394 195.353C158.371 199.193 166.368 201.898 173.732 202.594C181.004 203.28 189.422 202.106 195.646 195.882ZM127.765 167.584C134.719 162.147 141.792 155.899 148.728 148.964C155.664 142.028 161.912 134.954 167.349 128C161.912 121.046 155.664 113.972 148.728 107.036C141.792 100.101 134.719 93.8528 127.765 88.416C120.81 93.8528 113.737 100.101 106.801 107.036C99.8648 113.972 93.6168 121.046 88.18 128C93.6168 134.954 99.8648 142.028 106.801 148.964C113.737 155.899 120.81 162.147 127.765 167.584ZM137.198 174.516C143.744 169.246 150.308 163.356 156.714 156.95C163.12 150.544 169.011 143.979 174.281 137.434C189.75 159.935 195.702 179.855 187.661 187.896C179.619 195.938 159.7 189.986 137.198 174.516ZM81.248 137.434C86.5184 143.979 92.4088 150.544 98.8144 156.95C105.221 163.356 111.785 169.246 118.331 174.516C95.8288 189.986 75.9097 195.938 67.8684 187.896C59.8271 179.855 65.779 159.935 81.248 137.434ZM81.248 118.566C86.5184 112.021 92.4088 105.456 98.8144 99.0504C105.221 92.644 111.785 86.7536 118.331 81.484C95.8288 66.0146 75.9097 60.0627 67.8684 68.104C59.8271 76.1452 65.779 96.0648 81.248 118.566ZM137.198 81.484C143.744 86.7536 150.308 92.644 156.714 99.0504C163.12 105.456 169.011 112.021 174.281 118.566C189.75 96.0648 195.702 76.1452 187.661 68.104C179.619 60.0627 159.7 66.0146 137.198 81.484Z" fill="white" stroke="white" stroke-width="0.5"/>
</g>
</g>
<defs>
<clipPath id="clip0_1_382">
<rect width="256" height="256" fill="white"/>
</clipPath>
</defs>
</svg>
