<svg width="256" height="256" viewBox="0 0 256 256" fill="none" xmlns="http://www.w3.org/2000/svg">
<g clip-path="url(#clip0_3_483)">
<rect width="256" height="256" rx="60" fill="#398CCB"/>
<g clip-path="url(#clip1_3_483)">
<path d="M181.707 -1H75.293C33.7098 -1 0 32.7098 0 74.293V180.707C0 222.29 33.7098 256 75.293 256H181.707C223.29 256 257 222.29 257 180.707V74.293C257 32.7098 223.29 -1 181.707 -1Z" fill="#398CCB"/>
<path fill-rule="evenodd" clip-rule="evenodd" d="M128.222 36.6465L163.899 57.2306V68.5486L207.083 93.4867V136.146L218.666 142.833V184.024L183.012 204.608L167.183 195.453L128.697 217.674L90.4409 195.582L74.8337 204.608L39.1794 183.989V142.833L50.3113 136.406V93.4867L92.5677 69.0917L92.5913 69.0907V57.2306L128.222 36.6465ZM163.899 79.2518V98.3983L128.245 118.982L92.5913 98.3983V79.7823L92.5677 79.7833L59.5778 98.8385V131.056L74.8337 122.249L110.487 142.833V183.989L99.7009 190.227L128.697 206.971L157.923 190.1L147.358 183.989V142.833L183.012 122.249L197.816 130.795V98.8385L163.899 79.2518ZM156.625 178.684V153.559L178.379 166.116V191.241L156.625 178.684ZM209.399 153.524L187.646 166.081V191.241L209.399 178.649V153.524ZM48.4462 178.649V153.524L70.2002 166.081V191.205L48.4462 178.649ZM101.221 153.524L79.4667 166.081V191.205L101.221 178.649V153.524ZM161.258 145.532L183.012 132.975L204.766 145.532L183.012 158.1L161.258 145.532ZM74.8337 132.94L53.0795 145.532L74.8337 158.065L96.5873 145.532L74.8337 132.94ZM101.858 93.0469V67.9222L123.588 80.4901V105.603L101.858 93.0469ZM154.609 67.9222L132.879 80.4901V105.592L154.609 93.0469V67.9222ZM106.491 59.906L128.222 47.3497L149.976 59.906L128.222 72.4628L106.491 59.906Z" fill="white"/>
</g>
</g>
<defs>
<clipPath id="clip0_3_483">
<rect width="256" height="256" rx="60" fill="white"/>
</clipPath>
<clipPath id="clip1_3_483">
<rect width="257" height="257" fill="white" transform="translate(0 -1)"/>
</clipPath>
</defs>
</svg>
